<svg width="80" height="80" viewBox="0 0 80 80" fill="none" xmlns="http://www.w3.org/2000/svg">
<path d="M66.6665 28.3333C66.6673 26.4757 66.11 24.6608 65.0669 23.1238C64.0238 21.5868 62.543 20.3986 60.8165 19.7133C61.551 18.0074 61.7566 16.1203 61.4069 14.2962C61.0572 12.4721 60.1682 10.7949 58.8549 9.48158C57.5415 8.16825 55.8644 7.27923 54.0403 6.92951C52.2162 6.5798 50.3291 6.78548 48.6232 7.51996C47.9374 5.79321 46.749 4.31215 45.2118 3.26864C43.6746 2.22513 41.8594 1.66724 40.0015 1.66724C38.1436 1.66724 36.3284 2.22513 34.7912 3.26864C33.254 4.31215 32.0656 5.79321 31.3798 7.51996C29.6735 6.78238 27.7849 6.57427 25.9589 6.9226C24.1329 7.27093 22.4535 8.15965 21.1385 9.47359C19.8235 10.7875 18.9334 12.4661 18.5836 14.2919C18.2337 16.1176 18.4403 18.0063 19.1765 19.7133C17.4495 20.3983 15.968 21.5863 14.9242 23.1233C13.8804 24.6603 13.3223 26.4754 13.3223 28.3333C13.3223 30.1912 13.8804 32.0063 14.9242 33.5433C15.968 35.0803 17.4495 36.2683 19.1765 36.9533C18.442 38.6592 18.2363 40.5463 18.586 42.3704C18.9358 44.1945 19.8248 45.8717 21.1381 47.185C22.4514 48.4983 24.1286 49.3874 25.9527 49.7371C27.7768 50.0868 29.6639 49.8811 31.3698 49.1466C32.0556 50.8734 33.244 52.3544 34.7812 53.3979C36.3184 54.4415 38.1336 54.9993 39.9915 54.9993C41.8494 54.9993 43.6645 54.4415 45.2018 53.3979C46.739 52.3544 47.9274 50.8734 48.6132 49.1466C50.3191 49.8811 52.2062 50.0868 54.0303 49.7371C55.8544 49.3874 57.5315 48.4983 58.8449 47.185C60.1582 45.8717 61.0472 44.1945 61.3969 42.3704C61.7466 40.5463 61.541 38.6592 60.8065 36.9533C62.5349 36.2696 64.0178 35.082 65.0628 33.5449C66.1077 32.0078 66.6665 30.192 66.6665 28.3333Z" fill="#DDFEFF"/>
<path d="M58.8465 9.47996C57.5333 8.16579 55.8557 7.27633 54.0311 6.92686C52.2065 6.57738 50.319 6.78401 48.6132 7.51996C47.9274 5.79321 46.739 4.31215 45.2018 3.26864C43.6646 2.22513 41.8494 1.66724 39.9915 1.66724C38.1336 1.66724 36.3184 2.22513 34.7812 3.26864C33.244 4.31215 32.0556 5.79321 31.3698 7.51996C29.6639 6.78548 27.7768 6.5798 25.9527 6.92951C24.1286 7.27923 22.4514 8.16825 21.1381 9.48158C19.8248 10.7949 18.9358 12.4721 18.586 14.2962C18.2363 16.1203 18.442 18.0074 19.1765 19.7133C17.4495 20.3983 15.968 21.5863 14.9242 23.1233C13.8804 24.6603 13.3223 26.4754 13.3223 28.3333C13.3223 30.1912 13.8804 32.0063 14.9242 33.5433C15.968 35.0803 17.4495 36.2683 19.1765 36.9533C18.4401 38.659 18.2332 40.5467 18.5827 42.3714C18.9322 44.1961 19.8219 45.8737 21.1365 47.1866L58.8465 9.47996Z" fill="white"/>
<path d="M51.0005 38.56C50.5571 39.5281 49.8342 40.3414 48.9247 40.8951C48.0151 41.4487 46.9607 41.7175 45.8971 41.6667H40.5471C35.0005 41.6667 36.6605 38.3334 28.3271 38.3334V28.3334H29.4505C34.3038 28.3334 37.1971 22.7367 40.0005 16.6667C40.9171 14.6667 45.0005 13.3334 45.0005 17.6V25H53.7338C54.2994 25.0317 54.8311 25.2801 55.2184 25.6935C55.6058 26.1069 55.819 26.6536 55.8138 27.22L51.0005 38.56Z" fill="white" stroke="black" stroke-width="2" stroke-linecap="round" stroke-linejoin="round"/>
<path d="M66.5369 48.77L76.1302 65.3834C77.0469 66.97 76.3169 68.02 74.5069 67.7167L64.9569 66.1034L61.6669 75.1967C61.0402 76.92 59.7636 77.04 58.8269 75.46L49.6436 60" fill="#DDFEFF"/>
<path d="M66.5369 48.77L76.1302 65.3834C77.0469 66.97 76.3169 68.02 74.5069 67.7167L64.9569 66.1034L61.6669 75.1967C61.0402 76.92 59.7636 77.04 58.8269 75.46L49.6436 60" stroke="black" stroke-width="2" stroke-linecap="round" stroke-linejoin="round"/>
<path d="M13.4629 48.77L3.86954 65.3834C2.95288 66.97 3.68288 68.02 5.49288 67.7167L15.0429 66.1034L19.4962 78.3334L30.3329 60" fill="#DDFEFF"/>
<path d="M13.4629 48.77L3.86954 65.3834C2.95288 66.97 3.68288 68.02 5.49288 67.7167L15.0429 66.1034L19.4962 78.3334L30.3329 60" stroke="black" stroke-width="2" stroke-linecap="round" stroke-linejoin="round"/>
<path d="M66.6665 28.3333C66.6673 26.4757 66.11 24.6608 65.0669 23.1238C64.0238 21.5868 62.543 20.3986 60.8165 19.7133C61.551 18.0074 61.7566 16.1203 61.4069 14.2962C61.0572 12.4721 60.1682 10.7949 58.8549 9.48158C57.5415 8.16825 55.8644 7.27923 54.0403 6.92951C52.2162 6.5798 50.3291 6.78548 48.6232 7.51996C47.9374 5.79321 46.749 4.31215 45.2118 3.26864C43.6746 2.22513 41.8594 1.66724 40.0015 1.66724C38.1436 1.66724 36.3284 2.22513 34.7912 3.26864C33.254 4.31215 32.0656 5.79321 31.3798 7.51996C29.6735 6.78238 27.7849 6.57427 25.9589 6.9226C24.1329 7.27093 22.4535 8.15965 21.1385 9.47359C19.8235 10.7875 18.9334 12.4661 18.5836 14.2919C18.2337 16.1176 18.4403 18.0063 19.1765 19.7133C17.4495 20.3983 15.968 21.5863 14.9242 23.1233C13.8804 24.6603 13.3223 26.4754 13.3223 28.3333C13.3223 30.1912 13.8804 32.0063 14.9242 33.5433C15.968 35.0803 17.4495 36.2683 19.1765 36.9533C18.442 38.6592 18.2363 40.5463 18.586 42.3704C18.9358 44.1945 19.8248 45.8717 21.1381 47.185C22.4514 48.4983 24.1286 49.3874 25.9527 49.7371C27.7768 50.0868 29.6639 49.8811 31.3698 49.1466C32.0556 50.8734 33.244 52.3544 34.7812 53.3979C36.3184 54.4415 38.1336 54.9993 39.9915 54.9993C41.8494 54.9993 43.6645 54.4415 45.2018 53.3979C46.739 52.3544 47.9274 50.8734 48.6132 49.1466C50.3191 49.8811 52.2062 50.0868 54.0303 49.7371C55.8544 49.3874 57.5315 48.4983 58.8449 47.185C60.1582 45.8717 61.0472 44.1945 61.3969 42.3704C61.7466 40.5463 61.541 38.6592 60.8065 36.9533C62.5349 36.2696 64.0178 35.082 65.0628 33.5449C66.1077 32.0078 66.6665 30.192 66.6665 28.3333Z" stroke="black" stroke-width="2" stroke-linecap="round" stroke-linejoin="round"/>
</svg>
