<svg width="80" height="80" viewBox="0 0 80 80" fill="none" xmlns="http://www.w3.org/2000/svg">
<path d="M71.6663 13.3333V66.6667C71.6663 66.6667 71.6663 70 68.333 70H11.6663C11.6663 70 8.33301 70 8.33301 66.6667V13.3333C8.33301 13.3333 8.33301 10 11.6663 10H68.333C68.333 10 71.6663 10 71.6663 13.3333Z" fill="#DDFEFF"/>
<path d="M36.6836 26.6668C36.6836 28.8537 37.1143 31.0192 37.9513 33.0397C38.7882 35.0602 40.0148 36.896 41.5612 38.4424C43.1076 39.9889 44.9435 41.2155 46.964 42.0524C48.9844 42.8893 51.15 43.3201 53.3369 43.3201C55.5239 43.3201 57.6894 42.8893 59.7099 42.0524C61.7304 41.2155 63.5662 39.9889 65.1126 38.4424C66.659 36.896 67.8857 35.0602 68.7226 33.0397C69.5595 31.0192 69.9903 28.8537 69.9903 26.6668C69.9903 22.25 68.2357 18.0142 65.1126 14.8911C61.9895 11.768 57.7537 10.0134 53.3369 10.0134C48.9202 10.0134 44.6843 11.768 41.5612 14.8911C38.4381 18.0142 36.6836 22.25 36.6836 26.6668Z" fill="white"/>
<path d="M8.33301 41.6667C8.33301 47.413 10.6157 52.924 14.679 56.9873C18.7423 61.0506 24.2533 63.3333 29.9997 63.3333C35.746 63.3333 41.257 61.0506 45.3203 56.9873C49.3836 52.924 51.6663 47.413 51.6663 41.6667C51.6663 35.9203 49.3836 30.4093 45.3203 26.346C41.257 22.2827 35.746 20 29.9997 20C24.2533 20 18.7423 22.2827 14.679 26.346C10.6157 30.4093 8.33301 35.9203 8.33301 41.6667Z" fill="white"/>
<path d="M8.33301 41.6667C8.33301 47.413 10.6157 52.924 14.679 56.9873C18.7423 61.0506 24.2533 63.3333 29.9997 63.3333C35.746 63.3333 41.257 61.0506 45.3203 56.9873C49.3836 52.924 51.6663 47.413 51.6663 41.6667C51.6663 35.9203 49.3836 30.4093 45.3203 26.346C41.257 22.2827 35.746 20 29.9997 20C24.2533 20 18.7423 22.2827 14.679 26.346C10.6157 30.4093 8.33301 35.9203 8.33301 41.6667Z" stroke="black" stroke-width="2" stroke-linecap="round" stroke-linejoin="round"/>
<path d="M69.8799 28.6667C69.5255 31.4363 68.4952 34.076 66.8799 36.3534" stroke="black" stroke-width="2" stroke-linecap="round" stroke-linejoin="round"/>
<path d="M59.0602 42.2966C56.7078 43.1556 54.1936 43.4801 51.7002 43.2466" stroke="black" stroke-width="2" stroke-linecap="round" stroke-linejoin="round"/>
<path d="M37.543 21.35C38.1657 19.515 39.1018 17.8019 40.3096 16.2866Z" fill="white"/>
<path d="M37.543 21.35C38.1657 19.515 39.1018 17.8019 40.3096 16.2866" stroke="black" stroke-width="2" stroke-linecap="round" stroke-linejoin="round"/>
<path d="M46.7871 11.3534C49.3505 10.2484 52.1523 9.8115 54.9304 10.0834" stroke="black" stroke-width="2" stroke-linecap="round" stroke-linejoin="round"/>
<path d="M64.0195 13.8767C66.1512 15.6778 67.8075 17.9752 68.8429 20.5667" stroke="black" stroke-width="2" stroke-linecap="round" stroke-linejoin="round"/>
<path d="M1.66699 13.3333V6.66659C1.66699 5.78253 2.01818 4.93468 2.6433 4.30956C3.26842 3.68444 4.11627 3.33325 5.00033 3.33325H11.667" stroke="black" stroke-width="2" stroke-linecap="round" stroke-linejoin="round"/>
<path d="M78.333 13.3333V6.66659C78.333 5.78253 77.9818 4.93468 77.3567 4.30956C76.7316 3.68444 75.8837 3.33325 74.9997 3.33325H68.333" stroke="black" stroke-width="2" stroke-linecap="round" stroke-linejoin="round"/>
<path d="M1.66699 66.6667V73.3334C1.66699 74.2175 2.01818 75.0653 2.6433 75.6904C3.26842 76.3156 4.11627 76.6667 5.00033 76.6667H11.667" stroke="black" stroke-width="2" stroke-linecap="round" stroke-linejoin="round"/>
<path d="M78.333 66.6667V73.3334C78.333 74.2175 77.9818 75.0653 77.3567 75.6904C76.7316 76.3156 75.8837 76.6667 74.9997 76.6667H68.333" fill="white"/>
<path d="M78.333 66.6667V73.3334C78.333 74.2175 77.9818 75.0653 77.3567 75.6904C76.7316 76.3156 75.8837 76.6667 74.9997 76.6667H68.333" stroke="black" stroke-width="2" stroke-linecap="round" stroke-linejoin="round"/>
</svg>
