<svg width="270" height="270" viewBox="0 0 270 270" fill="none" xmlns="http://www.w3.org/2000/svg">
<path d="M129.375 56.25H134.262C168.543 56.25 185.684 56.25 192.191 62.407C197.815 67.7291 200.308 75.5694 198.789 83.1624C197.033 91.9464 183.039 101.845 155.051 121.641L109.324 153.984C81.3364 173.78 67.3424 183.679 65.5856 192.463C64.0671 200.056 66.5597 207.896 72.1841 213.218C78.6908 219.375 95.8315 219.375 130.113 219.375H140.625M90 56.25C90 74.8896 74.8896 90 56.25 90C37.6104 90 22.5 74.8896 22.5 56.25C22.5 37.6104 37.6104 22.5 56.25 22.5C74.8896 22.5 90 37.6104 90 56.25ZM247.5 213.75C247.5 232.39 232.39 247.5 213.75 247.5C195.11 247.5 180 232.39 180 213.75C180 195.11 195.11 180 213.75 180C232.39 180 247.5 195.11 247.5 213.75Z" stroke="#F9F9F9" stroke-width="10" stroke-linecap="round" stroke-linejoin="round"/>
</svg>
