<svg width="51" height="51" viewBox="0 0 51 51" fill="none" xmlns="http://www.w3.org/2000/svg">
<path d="M7.6875 49.25V37.375M7.6875 13.625V1.75M1.75 7.6875H13.625M1.75 43.3125H13.625M27.875 4.125L23.7563 14.8335C23.0865 16.575 22.7517 17.4457 22.2309 18.1781C21.7693 18.8272 21.2022 19.3943 20.5531 19.8559C19.8207 20.3767 18.95 20.7115 17.2085 21.3813L6.5 25.5L17.2085 29.6187C18.95 30.2885 19.8207 30.6233 20.5531 31.1441C21.2022 31.6057 21.7693 32.1728 22.2309 32.8219C22.7517 33.5543 23.0865 34.425 23.7563 36.1665L27.875 46.875L31.9937 36.1664C32.6635 34.425 32.9983 33.5543 33.5191 32.8219C33.9807 32.1728 34.5478 31.6057 35.1969 31.1441C35.9293 30.6233 36.8 30.2884 38.5415 29.6187L49.25 25.5L38.5414 21.3813C36.8 20.7115 35.9293 20.3767 35.1969 19.8559C34.5478 19.3943 33.9807 18.8272 33.5191 18.1781C32.9983 17.4457 32.6635 16.575 31.9937 14.8335L27.875 4.125Z" stroke="white" stroke-width="3" stroke-linecap="round" stroke-linejoin="round"/>
</svg>
