<svg width="46" height="28" viewBox="0 0 46 28" fill="none" xmlns="http://www.w3.org/2000/svg">
<path d="M40.5277 0.522949H5.47324C2.45501 0.522949 0 2.74867 0 5.48455V22.5152C0 25.2511 2.45501 27.4768 5.47324 27.4768H40.5273C43.5446 27.4768 46 25.2511 46 22.5152V5.48455C46 2.74867 43.5446 0.522949 40.5277 0.522949ZM43.1863 22.5152C43.1863 23.6994 41.9927 24.6631 40.5273 24.6631H5.47324C4.00675 24.6631 2.81373 23.6994 2.81373 22.5152V5.48455C2.81373 4.30041 4.00675 3.33668 5.47324 3.33668H40.5273C41.9929 3.33668 43.1863 4.30041 43.1863 5.48455V22.5152Z" fill="white"/>
<path d="M15.3176 10.3674H12.5039V12.7892H15.3176V10.3674Z" fill="white"/>
<path d="M15.3176 20.0537H12.5039V22.4754H15.3176V20.0537Z" fill="white"/>
<path d="M15.3176 5.52393H12.5039V7.94565H15.3176V5.52393Z" fill="white"/>
<path d="M15.3176 15.2109H12.5039V17.6321H15.3176V15.2109Z" fill="white"/>
<path d="M28.1105 10.1391C28.1105 7.9435 26.2877 6.14307 24.1136 6.14307C21.918 6.14307 20.1172 7.92187 20.1172 10.1391C20.1172 12.3792 21.9184 14.1355 24.1136 14.1355C26.2877 14.1355 28.1105 12.3572 28.1105 10.1391ZM22.379 10.1391C22.379 9.17295 23.1696 8.40484 24.1132 8.40484C25.0568 8.40484 25.8475 9.1735 25.8475 10.1391C25.8475 11.1056 25.0568 11.8737 24.1132 11.8737C23.1696 11.8737 22.379 11.105 22.379 10.1391Z" fill="white"/>
<path d="M34.4275 14.0042C32.2319 13.9962 30.4241 15.7689 30.4156 17.9865C30.408 20.2257 32.2027 21.9896 34.3988 21.9981C36.5733 22.006 38.4013 20.2329 38.4098 18.0157C38.4174 15.8194 36.6016 14.0116 34.4275 14.0042ZM34.4125 19.7357C33.4689 19.7357 32.6788 18.9661 32.6788 18.0006C32.6788 17.0341 33.4695 16.266 34.4125 16.266C35.357 16.266 36.1471 17.0346 36.1471 18.0006C36.1477 18.9667 35.357 19.7357 34.4125 19.7357Z" fill="white"/>
<path d="M32.1979 5.51491L23.7144 21.4648L26.1986 22.7862L34.6821 6.83623L32.1979 5.51491Z" fill="white"/>
</svg>
