<svg width="38" height="43" viewBox="0 0 38 43" fill="none" xmlns="http://www.w3.org/2000/svg">
<path d="M15.1667 12.6713C15.5044 11.6278 16.1709 10.7479 17.0483 10.1874C17.9257 9.62697 18.9573 9.42209 19.9603 9.6091C20.9633 9.7961 21.8731 10.3629 22.5285 11.2092C23.1839 12.0554 23.5426 13.1265 23.541 14.2327C23.541 17.3553 19.2318 18.9167 19.2318 18.9167M19.2873 25.1667H19.3065M9.41667 33.5V38.3656C9.41667 39.4757 9.41667 40.0308 9.62602 40.3159C9.80809 40.5638 10.0842 40.708 10.376 40.7077C10.7116 40.7073 11.1104 40.3605 11.9079 39.6671L16.48 35.6913C17.414 34.8791 17.881 34.473 18.401 34.1843C18.8624 33.9281 19.3535 33.7408 19.861 33.6276C20.433 33.5 21.0311 33.5 22.2272 33.5H27.05C30.2703 33.5 31.8805 33.5 33.1104 32.8188C34.1924 32.2196 35.072 31.2635 35.6233 30.0874C36.25 28.7505 36.25 27.0003 36.25 23.5V12.25C36.25 8.74967 36.25 6.99951 35.6233 5.66256C35.072 4.48655 34.1924 3.53042 33.1104 2.93121C31.8805 2.25 30.2703 2.25 27.05 2.25H10.95C7.7297 2.25 6.11955 2.25 4.88955 2.93121C3.80762 3.53042 2.92798 4.48655 2.37671 5.66256C1.75 6.99951 1.75 8.74967 1.75 12.25V25.1667C1.75 27.1041 1.75 28.0728 1.94593 28.8676C2.47761 31.0244 4.02751 32.7091 6.01179 33.287C6.743 33.5 7.63422 33.5 9.41667 33.5Z" stroke="white" stroke-width="3" stroke-linecap="round" stroke-linejoin="round"/>
</svg>
