<svg width="270" height="270" viewBox="0 0 270 270" fill="none" xmlns="http://www.w3.org/2000/svg">
<path d="M180 89.9999V50.6323C180 41.2752 180 36.5967 178.029 33.7215C176.307 31.2094 173.64 29.503 170.637 28.9921C167.201 28.4073 162.953 30.3678 154.457 34.289L54.6639 80.3473C47.0869 83.8444 43.2985 85.5929 40.5237 88.3047C38.0707 90.7021 36.1982 93.6286 35.0494 96.8605C33.75 100.516 33.75 104.689 33.75 113.034V168.75M185.625 163.125H185.738M33.75 126L33.75 200.25C33.75 212.851 33.75 219.152 36.2024 223.965C38.3595 228.198 41.8016 231.64 46.0352 233.798C50.8482 236.25 57.1488 236.25 69.75 236.25H200.25C212.851 236.25 219.152 236.25 223.965 233.798C228.198 231.64 231.64 228.198 233.798 223.965C236.25 219.152 236.25 212.851 236.25 200.25V126C236.25 113.399 236.25 107.098 233.798 102.285C231.64 98.0515 228.198 94.6094 223.965 92.4523C219.152 89.9999 212.851 89.9999 200.25 89.9999L69.75 89.9999C57.1488 89.9999 50.8482 89.9999 46.0352 92.4522C41.8016 94.6094 38.3595 98.0515 36.2024 102.285C33.75 107.098 33.75 113.399 33.75 126ZM191.25 163.125C191.25 166.231 188.732 168.75 185.625 168.75C182.518 168.75 180 166.231 180 163.125C180 160.018 182.518 157.5 185.625 157.5C188.732 157.5 191.25 160.018 191.25 163.125Z" stroke="#F9F9F9" stroke-width="10" stroke-linecap="round" stroke-linejoin="round"/>
</svg>
