<svg width="214" height="219" viewBox="0 0 214 219" fill="none" xmlns="http://www.w3.org/2000/svg">
<path d="M152 66.9999V27.6323C152 18.2752 152 13.5967 150.029 10.7215C148.307 8.20944 145.64 6.50298 142.637 5.99205C139.201 5.40726 134.953 7.36784 126.457 11.289L26.6639 57.3473C19.0869 60.8444 15.2985 62.5929 12.5237 65.3047C10.0707 67.7021 8.19819 70.6286 7.04943 73.8605C5.75 77.5163 5.75 81.6888 5.75 90.0339V145.75M157.625 140.125H157.738M5.75 103L5.75 177.25C5.75 189.851 5.75 196.152 8.20235 200.965C10.3595 205.198 13.8016 208.64 18.0352 210.798C22.8482 213.25 29.1488 213.25 41.75 213.25H172.25C184.851 213.25 191.152 213.25 195.965 210.798C200.198 208.64 203.64 205.198 205.798 200.965C208.25 196.152 208.25 189.851 208.25 177.25V103C208.25 90.3987 208.25 84.0981 205.798 79.2851C203.64 75.0515 200.198 71.6094 195.965 69.4523C191.152 66.9999 184.851 66.9999 172.25 66.9999L41.75 66.9999C29.1488 66.9999 22.8482 66.9999 18.0352 69.4522C13.8016 71.6094 10.3595 75.0515 8.20236 79.2851C5.75 84.0981 5.75 90.3987 5.75 103ZM163.25 140.125C163.25 143.231 160.732 145.75 157.625 145.75C154.518 145.75 152 143.231 152 140.125C152 137.018 154.518 134.5 157.625 134.5C160.732 134.5 163.25 137.018 163.25 140.125Z" stroke="#F9F9F9" stroke-width="10" stroke-linecap="round" stroke-linejoin="round"/>
</svg>
