<svg width="85" height="24" viewBox="0 0 85 24" fill="none" xmlns="http://www.w3.org/2000/svg">
<path fill-rule="evenodd" clip-rule="evenodd" d="M7.8603 0.0039613C7.89704 0.00374125 7.93728 0.00305551 7.98071 0.00231545C8.83501 -0.0122413 10.9228 -0.0478158 11.8325 3.02611C12.4764 5.20202 13.5022 8.76624 14.9098 13.7188H15.4831C16.9926 8.49747 18.0295 4.93324 18.5939 3.02611C19.502 -0.0424385 21.6908 -0.0123563 22.7522 0.00223114C22.8198 0.00315959 22.8828 0.00402526 22.9406 0.00402526L30.3928 0.00403457V23.2136H22.7973V9.53582H22.2879L18.0538 23.2136H12.3391L8.10491 9.52568H7.59558V23.2136H0V0.00403457L7.8603 0.0039613ZM41.3013 0.00393092V13.6919H41.9072L47.0577 2.43638C48.0575 0.1965 50.1883 0.00393092 50.1883 0.00393092H57.5386V23.2136H49.7844V9.52558H49.1784L44.129 20.7811C43.1292 23.0109 40.8973 23.2136 40.8973 23.2136H33.547V0.00393092H41.3013ZM76.0994 16.2999C79.86 16.2999 83.2568 14.1022 84.3384 11.0334H60.5938V23.2137H67.9675V16.2999H76.0994Z" fill="#40A548"/>
<path d="M76.455 0.00390625H60.207C60.5937 5.17116 65.0383 9.59466 69.6394 9.59466H84.8507C85.7285 5.30007 82.7067 0.00390625 76.455 0.00390625Z" fill="#1291D0"/>
</svg>
