<svg width="85" height="26" viewBox="0 0 85 26" fill="none" xmlns="http://www.w3.org/2000/svg">
<path d="M36.8328 25.4476H29.9473L34.2539 0.452881H41.1391L36.8328 25.4476Z" fill="#15195A"/>
<path d="M61.7933 1.06412C60.4352 0.55839 58.2811 0 55.6175 0C48.8179 0 44.0296 3.40335 44.0003 8.26913C43.9438 11.8591 47.4285 13.853 50.0348 15.05C52.6987 16.2732 53.6043 17.0715 53.6043 18.1618C53.5771 19.8363 51.4517 20.6081 49.4693 20.6081C46.7203 20.6081 45.2473 20.2102 43.0089 19.2786L42.1022 18.8792L41.1387 24.49C42.7536 25.1806 45.7289 25.7934 48.8179 25.8203C56.0426 25.8203 60.7462 22.4696 60.8019 17.2843C60.8294 14.439 58.9893 12.2588 55.0222 10.4772C52.614 9.3336 51.1392 8.56246 51.1392 7.39231C51.1674 6.32854 52.3866 5.23897 55.1051 5.23897C57.3435 5.18561 58.9882 5.69063 60.2341 6.19601L60.8569 6.46142L61.7933 1.06412V1.06412V1.06412Z" fill="#15195A"/>
<path fill-rule="evenodd" clip-rule="evenodd" d="M74.1193 0.452881H79.4452L85.0001 25.4472H78.6248C78.6248 25.4472 78.0009 22.5754 77.8032 21.6979H68.9628C68.7072 22.3623 67.5177 25.4472 67.5177 25.4472H60.293L70.5205 2.5267C71.2291 0.904541 72.4769 0.452881 74.1193 0.452881ZM73.6943 9.59949C73.6943 9.59949 71.5124 15.1569 70.9453 16.5928H76.6685C76.3853 15.3431 75.0814 9.36023 75.0814 9.36023L74.6002 7.20654C74.3976 7.76112 74.1046 8.52358 73.9069 9.03786C73.7729 9.38648 73.6828 9.62105 73.6943 9.59949Z" fill="#15195A"/>
<path fill-rule="evenodd" clip-rule="evenodd" d="M0.113334 0.452881H11.1914C12.693 0.505539 13.9114 0.957552 14.3079 2.55391L16.714 14.0307C16.7149 14.0338 16.7159 14.037 16.7169 14.0401L17.4538 17.4969L24.197 0.452881H31.4778L20.655 25.4211H13.3738L7.23686 3.70337C5.11919 2.5412 2.70229 1.60651 0 0.957906L0.113334 0.452881Z" fill="#15195A"/>
</svg>
