<svg width="80" height="80" viewBox="0 0 80 80" fill="none" xmlns="http://www.w3.org/2000/svg">
<path d="M66.6664 28.7733C66.667 26.9154 66.1097 25.1002 65.0666 23.5627C64.0236 22.0252 62.543 20.8363 60.8165 20.15C61.5509 18.4441 61.7566 16.557 61.4069 14.7329C61.0572 12.9088 60.1682 11.2316 58.8548 9.91829C57.5415 8.60496 55.8643 7.71594 54.0402 7.36622C52.2161 7.01651 50.329 7.22219 48.6231 7.95667C47.9361 6.23125 46.7472 4.75165 45.2101 3.70926C43.6731 2.66687 41.8586 2.10963 40.0014 2.10963C38.1443 2.10963 36.3298 2.66687 34.7928 3.70926C33.2557 4.75165 32.0668 6.23125 31.3798 7.95667C29.6734 7.21909 27.7849 7.01098 25.9588 7.35931C24.1328 7.70764 22.4535 8.59636 21.1385 9.9103C19.8235 11.2242 18.9334 12.9028 18.5835 14.7286C18.2337 16.5543 18.4403 18.443 19.1765 20.15C17.4497 20.8358 15.9686 22.0242 14.9251 23.5614C13.8816 25.0986 13.3237 26.9137 13.3237 28.7717C13.3237 30.6296 13.8816 32.4447 14.9251 33.9819C15.9686 35.5191 17.4497 36.7076 19.1765 37.3933C18.442 39.0993 18.2363 40.9863 18.586 42.8104C18.9357 44.6345 19.8247 46.3117 21.1381 47.6251C22.4514 48.9384 24.1286 49.8274 25.9527 50.1771C27.7768 50.5268 29.6639 50.3211 31.3698 49.5867C32.0555 51.3134 33.244 52.7945 34.7812 53.838C36.3184 54.8815 38.1335 55.4394 39.9915 55.4394C41.8494 55.4394 43.6645 54.8815 45.2017 53.838C46.7389 52.7945 47.9274 51.3134 48.6131 49.5867C50.319 50.3211 52.2061 50.5268 54.0302 50.1771C55.8543 49.8274 57.5315 48.9384 58.8448 47.6251C60.1582 46.3117 61.0472 44.6345 61.3969 42.8104C61.7466 40.9863 61.5409 39.0993 60.8065 37.3933C62.5348 36.7096 64.0177 35.5221 65.0627 33.985C66.1077 32.4478 66.6664 30.632 66.6664 28.7733Z" fill="#DDFEFF"/>
<path d="M58.8465 9.91667C57.5326 8.60368 55.855 7.71503 54.0307 7.36561C52.2064 7.0162 50.3192 7.22209 48.6131 7.95667C47.9261 6.23125 46.7372 4.75165 45.2001 3.70926C43.6631 2.66687 41.8486 2.10963 39.9915 2.10963C38.1343 2.10963 36.3198 2.66687 34.7828 3.70926C33.2457 4.75165 32.0568 6.23125 31.3698 7.95667C29.6639 7.22219 27.7768 7.01651 25.9527 7.36622C24.1286 7.71594 22.4514 8.60496 21.1381 9.91829C19.8247 11.2316 18.9357 12.9088 18.586 14.7329C18.2363 16.557 18.442 18.4441 19.1765 20.15C17.4497 20.8357 15.9686 22.0242 14.9251 23.5614C13.8816 25.0986 13.3237 26.9137 13.3237 28.7717C13.3237 30.6296 13.8816 32.4447 14.9251 33.9819C15.9686 35.5191 17.4497 36.7076 19.1765 37.3933C18.4405 39.0991 18.2339 40.9867 18.5834 42.8113C18.9328 44.6359 19.8223 46.3135 21.1365 47.6267L58.8465 9.91667Z" fill="white"/>
<path d="M66.5368 49.21L76.9635 67.2667C77.4235 68.06 77.0568 68.6 76.1535 68.4333L64.9602 66.54L61.0802 77.2067C60.7668 78.0667 60.1268 78.1267 59.6602 77.34L49.6602 60.43" fill="#DDFEFF"/>
<path d="M66.5368 49.21L76.9635 67.2667C77.4235 68.06 77.0568 68.6 76.1535 68.4333L64.9602 66.54L61.0802 77.2067C60.7668 78.0667 60.1268 78.1267 59.6602 77.34L49.6602 60.43" stroke="black" stroke-width="2" stroke-linecap="round" stroke-linejoin="round"/>
<path d="M13.4633 49.21L3.03662 67.2667C2.57662 68.06 2.94329 68.6 3.84662 68.4333L15.04 66.54L18.9233 77.2067C19.2366 78.07 19.8766 78.1267 20.3433 77.34L30.3433 60.45" fill="#DDFEFF"/>
<path d="M13.4633 49.21L3.03662 67.2667C2.57662 68.06 2.94329 68.6 3.84662 68.4333L15.04 66.54L18.9233 77.2067C19.2366 78.07 19.8766 78.1267 20.3433 77.34L30.3433 60.45" stroke="black" stroke-width="2" stroke-linecap="round" stroke-linejoin="round"/>
<path d="M66.6664 28.7733C66.667 26.9154 66.1097 25.1002 65.0666 23.5627C64.0236 22.0252 62.543 20.8363 60.8165 20.15C61.5509 18.4441 61.7566 16.557 61.4069 14.7329C61.0572 12.9088 60.1682 11.2316 58.8548 9.91829C57.5415 8.60496 55.8643 7.71594 54.0402 7.36622C52.2161 7.01651 50.329 7.22219 48.6231 7.95667C47.9361 6.23125 46.7472 4.75165 45.2101 3.70926C43.6731 2.66687 41.8586 2.10963 40.0014 2.10963C38.1443 2.10963 36.3298 2.66687 34.7928 3.70926C33.2557 4.75165 32.0668 6.23125 31.3798 7.95667C29.6734 7.21909 27.7849 7.01098 25.9588 7.35931C24.1328 7.70764 22.4535 8.59636 21.1385 9.9103C19.8235 11.2242 18.9334 12.9028 18.5835 14.7286C18.2337 16.5543 18.4403 18.443 19.1765 20.15C17.4497 20.8358 15.9686 22.0242 14.9251 23.5614C13.8816 25.0986 13.3237 26.9137 13.3237 28.7717C13.3237 30.6296 13.8816 32.4447 14.9251 33.9819C15.9686 35.5191 17.4497 36.7076 19.1765 37.3933C18.442 39.0993 18.2363 40.9863 18.586 42.8104C18.9357 44.6345 19.8247 46.3117 21.1381 47.6251C22.4514 48.9384 24.1286 49.8274 25.9527 50.1771C27.7768 50.5268 29.6639 50.3211 31.3698 49.5867C32.0555 51.3134 33.244 52.7945 34.7812 53.838C36.3184 54.8815 38.1335 55.4394 39.9915 55.4394C41.8494 55.4394 43.6645 54.8815 45.2017 53.838C46.7389 52.7945 47.9274 51.3134 48.6131 49.5867C50.319 50.3211 52.2061 50.5268 54.0302 50.1771C55.8543 49.8274 57.5315 48.9384 58.8448 47.6251C60.1582 46.3117 61.0472 44.6345 61.3969 42.8104C61.7466 40.9863 61.5409 39.0993 60.8065 37.3933C62.5348 36.7096 64.0177 35.5221 65.0627 33.985C66.1077 32.4478 66.6664 30.632 66.6664 28.7733Z" stroke="black" stroke-width="2" stroke-linecap="round" stroke-linejoin="round"/>
<path d="M53.3335 20.44L37.6035 36.1733C37.3713 36.4057 37.0957 36.5899 36.7922 36.7157C36.4888 36.8414 36.1636 36.9061 35.8352 36.9061C35.5067 36.9061 35.1815 36.8414 34.8781 36.7157C34.5747 36.5899 34.299 36.4057 34.0668 36.1733L28.3335 30.44" stroke="black" stroke-width="2" stroke-linecap="round" stroke-linejoin="round"/>
</svg>
