<svg width="17.007812" height="16.063477" viewBox="0 0 17.0078 16.0635" fill="none" xmlns="http://www.w3.org/2000/svg" xmlns:xlink="http://www.w3.org/1999/xlink">
	<desc>
			Created with Pixso.
	</desc>
	<defs/>
	<path id="Icon" d="M6.25 15.06L6.25 9.51C6.25 9.09 6.25 8.88 6.33 8.72C6.4 8.58 6.52 8.46 6.66 8.39C6.82 8.31 7.03 8.31 7.45 8.31L9.55 8.31C9.97 8.31 10.18 8.31 10.34 8.39C10.48 8.46 10.6 8.58 10.67 8.72C10.75 8.88 10.75 9.09 10.75 9.51L10.75 15.06M14.5 12.66C14.5 13.5 14.5 13.92 14.34 14.24C14.19 14.52 13.96 14.75 13.68 14.89C13.36 15.06 12.94 15.06 12.1 15.06L4.9 15.06C4.06 15.06 3.64 15.06 3.32 14.89C3.04 14.75 2.81 14.52 2.66 14.24C2.5 13.92 2.5 13.5 2.5 12.66L2.5 5.31L7.06 1.89C7.58 1.5 7.83 1.31 8.12 1.23C8.37 1.17 8.63 1.17 8.88 1.23C9.16 1.31 9.42 1.5 9.94 1.89L14.5 5.31L14.5 12.66ZM1 6.43L7.78 1.35C8.04 1.15 8.17 1.06 8.31 1.02C8.43 0.99 8.56 0.99 8.69 1.02C8.83 1.06 8.96 1.15 9.22 1.35L16 6.43" stroke="#28B3B6" stroke-opacity="1.000000" stroke-width="2.000000" stroke-linejoin="round" stroke-linecap="round"/>
</svg>
