<svg width="80" height="80" viewBox="0 0 80 80" fill="none" xmlns="http://www.w3.org/2000/svg">
<path d="M58.3337 29.3333V69.3333C58.3998 70.5476 58.1735 71.76 57.6737 72.8687C57.1739 73.9774 56.4152 74.9498 55.4614 75.7044C54.5077 76.4589 53.3867 76.9734 52.1928 77.2046C50.9988 77.4359 49.7668 77.3771 48.6003 77.0333L11.4003 68.2666C8.68741 67.5172 6.28274 65.9253 4.53331 63.7205C2.78387 61.5157 1.78016 58.8122 1.667 55.9999V12.6666C1.665 10.1382 2.63113 7.70496 4.367 5.86659V5.83325L48.6337 16.8999C51.3483 17.6965 53.7445 19.3249 55.4847 21.5554C57.2249 23.786 58.2214 26.5064 58.3337 29.3333Z" fill="#DDFEFF" stroke="black" stroke-width="2" stroke-linecap="round" stroke-linejoin="round"/>
<path d="M78.3329 12.6668V49.3334C78.325 51.9832 77.2689 54.5221 75.3952 56.3958C73.5216 58.2694 70.9826 59.3255 68.3329 59.3334H58.3329V29.3334C58.2206 26.5066 57.2242 23.7862 55.484 21.5556C53.7437 19.325 51.3475 17.6967 48.6329 16.9001L4.36621 5.83345C5.29927 4.83127 6.42932 4.03269 7.68551 3.48776C8.9417 2.94284 10.2969 2.66334 11.6662 2.66678H68.3329C70.985 2.66678 73.5286 3.72035 75.4039 5.59571C77.2793 7.47108 78.3329 10.0146 78.3329 12.6668Z" fill="white" stroke="black" stroke-width="2" stroke-linecap="round" stroke-linejoin="round"/>
<path d="M31.667 12.6667H65.0003Z" fill="white"/>
<path d="M31.667 12.6667H65.0003" stroke="black" stroke-width="2" stroke-linecap="round" stroke-linejoin="round"/>
<path d="M43.3337 52.6666C44.6522 52.6666 45.9411 52.2756 47.0375 51.5431C48.1338 50.8105 48.9883 49.7693 49.4929 48.5511C49.9974 47.333 50.1295 45.9925 49.8722 44.6993C49.615 43.4061 48.9801 42.2182 48.0477 41.2859C47.1154 40.3535 45.9275 39.7186 44.6343 39.4614C43.3411 39.2041 42.0006 39.3361 40.7824 39.8407C39.5643 40.3453 38.5231 41.1998 37.7905 42.2961C37.058 43.3924 36.667 44.6814 36.667 45.9999C36.667 47.768 37.3694 49.4637 38.6196 50.714C39.8699 51.9642 41.5655 52.6666 43.3337 52.6666Z" fill="white"/>
<path d="M43.3337 44.7034C44.6265 44.7034 45.8915 45.0793 46.9746 45.7854C48.0576 46.4914 48.912 47.4971 49.4337 48.6801C49.8811 47.6653 50.0683 46.5549 49.9783 45.4494C49.8883 44.344 49.524 43.2785 48.9183 42.3494C48.3125 41.4204 47.4846 40.6571 46.5095 40.1288C45.5343 39.6004 44.4427 39.3237 43.3337 39.3237C42.2246 39.3237 41.133 39.6004 40.1579 40.1288C39.1827 40.6571 38.3548 41.4204 37.7491 42.3494C37.1433 43.2785 36.779 44.344 36.689 45.4494C36.599 46.5549 36.7862 47.6653 37.2337 48.6801C37.7553 47.4971 38.6097 46.4914 39.6928 45.7854C40.7758 45.0793 42.0408 44.7034 43.3337 44.7034Z" fill="#DDFEFF"/>
<path d="M43.3337 52.6666C44.6522 52.6666 45.9411 52.2756 47.0375 51.5431C48.1338 50.8105 48.9883 49.7693 49.4929 48.5511C49.9974 47.333 50.1295 45.9925 49.8722 44.6993C49.615 43.4061 48.9801 42.2182 48.0477 41.2859C47.1154 40.3535 45.9275 39.7186 44.6343 39.4614C43.3411 39.2041 42.0006 39.3361 40.7824 39.8407C39.5643 40.3453 38.5231 41.1998 37.7905 42.2961C37.058 43.3924 36.667 44.6814 36.667 45.9999C36.667 47.768 37.3694 49.4637 38.6196 50.714C39.8699 51.9642 41.5655 52.6666 43.3337 52.6666Z" stroke="black" stroke-width="2" stroke-linecap="round" stroke-linejoin="round"/>
<path d="M58.333 29.3333H64.9997Z" fill="white"/>
<path d="M58.333 29.3333H64.9997" stroke="black" stroke-width="2" stroke-linecap="round" stroke-linejoin="round"/>
</svg>
