<svg width="21" height="21" viewBox="0 0 21 21" fill="none" xmlns="http://www.w3.org/2000/svg">
<path fill-rule="evenodd" clip-rule="evenodd" d="M8.64656 1.64185C7.15669 3.13125 7.00425 3.2987 7.00425 3.44568C7.00425 3.63993 7.11518 3.87071 7.23692 3.92979C7.28545 3.95338 7.80277 3.98383 8.38654 3.9975L9.44795 4.02233L9.47263 9.03982L9.49732 14.0573L9.64542 14.2675C9.86743 14.5826 10.1591 14.7192 10.5641 14.6976C10.9433 14.6774 11.1705 14.5518 11.3864 14.2428L11.5214 14.0496L11.5461 9.03597L11.5708 4.02233L12.6322 3.9975C13.2159 3.98383 13.7281 3.95535 13.7702 3.93423C13.8909 3.87377 14.0145 3.62784 14.0145 3.44795C14.0145 3.29801 13.8712 3.14047 12.3721 1.64185L10.7299 0H10.5094H10.2888L8.64656 1.64185ZM0.783617 14.7516C0.401955 14.8735 0.135962 15.1191 0.0406821 15.4376C0.00464363 15.5581 -0.00764889 16.0414 0.00459431 16.8543C0.0224161 18.0357 0.0288339 18.1049 0.155462 18.483C0.344392 19.047 0.602931 19.4593 1.05544 19.9181C1.50187 20.3707 1.9482 20.655 2.53647 20.8614L2.93141 21H10.5094H18.0873L18.5198 20.8453C19.1208 20.6303 19.4506 20.4221 19.9169 19.9636C20.3707 19.5173 20.6544 19.0724 20.8614 18.483L21 18.0881V16.7476V15.407L20.8497 15.1929C20.4725 14.6555 19.7438 14.5773 19.2551 15.0216C18.996 15.2573 18.9782 15.3458 18.9469 16.5582C18.9118 17.917 18.8795 18.0437 18.4607 18.4627C17.9534 18.9705 18.6954 18.9271 10.5094 18.9271C3.73749 18.9271 3.36264 18.9226 3.11802 18.8373C2.7758 18.718 2.40387 18.3772 2.23039 18.0241C2.09354 17.7455 2.09191 17.7309 2.06747 16.5746L2.04279 15.4065L1.89252 15.1927C1.80982 15.0751 1.65432 14.9307 1.54694 14.8719C1.32419 14.7499 0.965833 14.6935 0.783617 14.7516Z" fill="#FF9900"/>
</svg>
