<svg width="25" height="25" viewBox="0 0 25 25" fill="none" xmlns="http://www.w3.org/2000/svg">
<path d="M13.542 1.04187C13.542 0.765598 13.6517 0.500646 13.8471 0.305296C14.0424 0.109945 14.3074 0.000198664 14.5836 0.000198664C17.3454 0.00323158 19.9931 1.10167 21.946 3.05452C23.8988 5.00737 24.9973 7.65513 25.0003 10.4169C25.0003 10.6931 24.8906 10.9581 24.6952 11.1534C24.4999 11.3488 24.2349 11.4585 23.9586 11.4585C23.6824 11.4585 23.4174 11.3488 23.2221 11.1534C23.0267 10.9581 22.917 10.6931 22.917 10.4169C22.9145 8.20749 22.0357 6.08932 20.4735 4.52705C18.9112 2.96478 16.793 2.08601 14.5836 2.08353C14.3074 2.08353 14.0424 1.97379 13.8471 1.77843C13.6517 1.58308 13.542 1.31813 13.542 1.04187ZM14.5836 6.2502C15.6887 6.2502 16.7485 6.68919 17.5299 7.47059C18.3113 8.25199 18.7503 9.3118 18.7503 10.4169C18.7503 10.6931 18.8601 10.9581 19.0554 11.1534C19.2508 11.3488 19.5157 11.4585 19.792 11.4585C20.0682 11.4585 20.3332 11.3488 20.5285 11.1534C20.7239 10.9581 20.8336 10.6931 20.8336 10.4169C20.832 8.75977 20.173 7.17102 19.0012 5.99928C17.8295 4.82753 16.2407 4.16852 14.5836 4.16687C14.3074 4.16687 14.0424 4.27661 13.8471 4.47196C13.6517 4.66731 13.542 4.93227 13.542 5.20853C13.542 5.4848 13.6517 5.74975 13.8471 5.9451C14.0424 6.14045 14.3074 6.2502 14.5836 6.2502ZM24.0555 17.4367C24.6592 18.042 24.9982 18.862 24.9982 19.7169C24.9982 20.5717 24.6592 21.3917 24.0555 21.9971L23.1076 23.0898C14.5764 31.2575 -6.18406 10.5023 1.8576 1.94395L3.05552 0.902282C3.66153 0.315487 4.4742 -0.00912521 5.31771 -0.00132754C6.16122 0.00647013 6.96775 0.346051 7.56281 0.943949C7.5951 0.97624 9.52531 3.48353 9.52531 3.48353C10.0981 4.08523 10.4169 4.8845 10.4155 5.7152C10.4142 6.5459 10.0927 7.34413 9.51802 7.94395L8.31177 9.46062C8.97932 11.0826 9.96079 12.5567 11.1998 13.7982C12.4388 15.0397 13.9109 16.0242 15.5316 16.695L17.0576 15.4815C17.6575 14.9072 18.4556 14.5861 19.286 14.585C20.1165 14.5838 20.9155 14.9026 21.517 15.4752C21.517 15.4752 24.0232 17.4044 24.0555 17.4367ZM22.6222 18.9512C22.6222 18.9512 20.1295 17.0335 20.0972 17.0012C19.8826 16.7885 19.5926 16.6691 19.2904 16.6691C18.9882 16.6691 18.6982 16.7885 18.4836 17.0012C18.4555 17.0304 16.3545 18.7044 16.3545 18.7044C16.2129 18.8171 16.0444 18.8909 15.8656 18.9187C15.6867 18.9465 15.5038 18.9272 15.3347 18.8627C13.2352 18.081 11.3282 16.8572 9.74285 15.2742C8.15753 13.6913 6.93094 11.7861 6.14614 9.6877C6.07656 9.5163 6.05387 9.32946 6.08042 9.14639C6.10696 8.96331 6.18178 8.79061 6.29719 8.64603C6.29719 8.64603 7.97114 6.54395 7.99927 6.51687C8.21205 6.30227 8.33144 6.0123 8.33144 5.71009C8.33144 5.40789 8.21205 5.11792 7.99927 4.90332C7.96698 4.87207 6.04927 2.37728 6.04927 2.37728C5.83146 2.18198 5.54719 2.07738 5.25474 2.08493C4.96228 2.09249 4.68379 2.21162 4.47635 2.41791L3.27844 3.45957C-2.59865 10.5262 15.392 27.5189 21.5847 21.6669L22.5336 20.5731C22.756 20.3671 22.8896 20.0828 22.9061 19.7801C22.9226 19.4774 22.8208 19.1802 22.6222 18.9512Z" fill="#0F111A"/>
</svg>
