<svg width="23" height="25" viewBox="0 0 23 25" fill="none" xmlns="http://www.w3.org/2000/svg">
<path d="M0.254868 3.12421C0.357064 2.94755 0.496485 2.7925 0.661385 2.67214C0.956261 2.4569 1.32032 2.35814 1.63178 2.16765C1.90921 1.99796 2.13918 1.75833 2.32679 1.49281C2.48434 1.26984 2.61488 1.02627 2.79888 0.824527C2.97128 0.635498 3.18729 0.488082 3.42177 0.385555C3.60309 0.306271 3.79586 0.253257 3.9922 0.228311C4.19646 0.20236 4.40376 0.20673 4.60853 0.228311C4.88644 0.257601 5.16046 0.318429 5.42813 0.398659C5.67657 0.473129 5.92283 0.565838 6.13625 0.713146C6.47286 0.945479 6.70512 1.29637 6.98863 1.59109C7.30284 1.91772 7.68268 2.17746 7.98525 2.51489C8.12231 2.66775 8.24244 2.83552 8.34587 3.01283C8.46616 3.21905 8.56379 3.43789 8.64748 3.66146C8.72897 3.87916 8.7975 4.10204 8.84418 4.32975C8.90312 4.61726 8.9269 4.91065 8.96876 5.20114C9.01706 5.53634 9.08974 5.87221 9.06711 6.21012C9.04632 6.52049 8.94596 6.81905 8.87041 7.12082C8.79226 7.43294 8.74027 7.7509 8.67679 8.06633C8.6729 8.08568 8.66895 8.10514 8.6684 8.12488C8.66785 8.14461 8.67089 8.16483 8.68026 8.18221C8.68807 8.1967 8.7001 8.20877 8.71421 8.21724C8.72832 8.22571 8.74446 8.23064 8.76085 8.2322C8.79363 8.23533 8.82665 8.22511 8.85512 8.20859C8.91207 8.17554 8.95144 8.11945 9.00228 8.07762C9.0651 8.02592 9.14418 7.99725 9.22414 7.98208C9.30411 7.96692 9.38583 7.9644 9.46707 7.95945C9.71197 7.94453 9.95824 7.90726 10.2014 7.93979C10.469 7.97559 10.7213 8.09463 10.9901 8.11889C11.2958 8.14647 11.597 8.05004 11.8996 7.99876C12.3274 7.92627 12.7649 7.94391 13.1978 7.97255C13.7385 8.00832 14.281 8.06144 14.8042 8.20187C15.0975 8.28058 15.383 8.38627 15.6632 8.50325C16.0292 8.65607 16.3965 8.83509 16.6664 9.12567C16.757 9.22331 16.8371 9.33385 16.9483 9.4074C16.9843 9.43124 17.0239 9.45146 17.052 9.48425C17.0661 9.50065 17.077 9.52017 17.0809 9.54139C17.0849 9.56261 17.0815 9.58559 17.0694 9.60347C17.0607 9.61631 17.0481 9.62592 17.037 9.63672C17.0314 9.64212 17.0262 9.64789 17.022 9.65443C17.0178 9.66097 17.0147 9.66832 17.0139 9.67602C17.0128 9.68597 17.0154 9.69616 17.0204 9.70483C17.0254 9.7135 17.0327 9.72072 17.0409 9.72644C17.0573 9.73788 17.0771 9.74333 17.0961 9.74951C17.2672 9.80504 17.4047 9.93042 17.545 10.0429C17.7298 10.1911 17.9283 10.322 18.1088 10.4753C18.3388 10.6707 18.5375 10.9012 18.71 11.1488C18.8758 11.3867 19.0184 11.6414 19.2038 11.8643C19.2149 11.8776 19.2263 11.8912 19.2319 11.9076C19.2348 11.9158 19.236 11.9246 19.2348 11.9332C19.2335 11.9418 19.2297 11.9501 19.2235 11.9561C19.2188 11.9605 19.213 11.9636 19.2069 11.9656C19.2007 11.9676 19.1943 11.9685 19.1879 11.9692C19.1751 11.9705 19.1619 11.9705 19.1499 11.9752C19.1341 11.9814 19.1219 11.9954 19.1161 12.0114C19.1104 12.0275 19.1107 12.0453 19.1152 12.0617C19.1241 12.0946 19.1481 12.1209 19.171 12.1461C19.3759 12.3704 19.5627 12.6114 19.7788 12.8249C19.9699 13.0137 20.1839 13.1808 20.3512 13.3909C20.4712 13.5415 20.5687 13.7156 20.7246 13.8287C20.7698 13.8615 20.8195 13.8889 20.8589 13.9284C20.8786 13.9482 20.8955 13.9711 20.9062 13.9969C20.9168 14.0227 20.9209 14.0515 20.9151 14.0788C20.9092 14.1068 20.8935 14.1316 20.879 14.1563C20.8646 14.1811 20.8508 14.2075 20.8495 14.2361C20.8487 14.2536 20.8528 14.2711 20.86 14.2871C20.8672 14.303 20.8777 14.3174 20.8898 14.33C20.914 14.3553 20.9444 14.3737 20.9742 14.392C21.1155 14.4786 21.2538 14.5702 21.3872 14.6685C21.5855 14.8146 21.7735 14.9758 21.9835 15.1045C22.0212 15.1276 22.0601 15.1501 22.0897 15.1828C22.1045 15.1992 22.1168 15.218 22.124 15.2389C22.1313 15.2597 22.1333 15.2826 22.1281 15.304C22.1218 15.3301 22.105 15.3529 22.0838 15.3692C22.0625 15.3855 22.037 15.3956 22.0108 15.4013C21.9584 15.4127 21.904 15.4071 21.8504 15.4098C21.722 15.4164 21.6013 15.4707 21.4856 15.5268C21.2516 15.6402 21.0231 15.7644 20.7905 15.8806C20.486 16.0327 20.1745 16.1709 19.8595 16.2999C19.4978 16.4481 19.1308 16.5845 18.7776 16.752C18.3607 16.9497 17.9643 17.1902 17.5384 17.3679C17.1768 17.5187 16.7891 17.6239 16.3975 17.6103C16.2444 17.6049 16.091 17.5815 15.9386 17.5972C15.7701 17.6145 15.6106 17.6787 15.4468 17.7217C15.4019 17.7334 15.3562 17.7438 15.314 17.763C15.2718 17.7823 15.2325 17.8117 15.2108 17.8527C15.191 17.8899 15.1873 17.9344 15.1954 17.9757C15.2034 18.0171 15.2226 18.0556 15.2465 18.0904C15.2941 18.1599 15.3598 18.2156 15.4075 18.2851C15.4926 18.4094 15.5124 18.5669 15.5124 18.7175C15.5123 19.0082 15.448 19.2945 15.4075 19.5824C15.3534 19.9663 15.3416 20.3548 15.3222 20.742C15.3058 21.0707 15.2843 21.4049 15.3616 21.7248C15.3985 21.8779 15.4575 22.0246 15.5073 22.174C15.5571 22.3234 15.5983 22.478 15.5976 22.6355C15.5971 22.7823 15.5597 22.9276 15.4993 23.0614C15.3651 23.358 15.1242 23.5909 14.8886 23.8157C14.8607 23.8423 14.8322 23.8692 14.7978 23.8864C14.7805 23.895 14.7618 23.901 14.7426 23.9027C14.7234 23.9044 14.7037 23.9016 14.6862 23.8935C14.6701 23.8859 14.6563 23.874 14.6454 23.86C14.6344 23.846 14.6263 23.83 14.6201 23.8133C14.6077 23.7801 14.6029 23.7445 14.5944 23.71C14.5782 23.6435 14.5471 23.5789 14.4961 23.5331C14.461 23.5016 14.4176 23.4801 14.3721 23.4676C14.3266 23.4551 14.279 23.4513 14.2318 23.4529C14.1375 23.456 14.0452 23.4798 13.9519 23.4938C13.5576 23.5531 13.1566 23.4381 12.7586 23.461C12.6508 23.4672 12.5394 23.4852 12.4504 23.5462C12.385 23.591 12.3358 23.6565 12.2697 23.7002C12.2366 23.7221 12.199 23.7383 12.1594 23.741C12.1397 23.7423 12.1196 23.7402 12.1008 23.734C12.0819 23.7278 12.0644 23.7175 12.0504 23.7035C12.0318 23.6847 12.02 23.6598 12.0149 23.6338C12.0098 23.6079 12.0113 23.5809 12.0168 23.5551C12.0277 23.5033 12.054 23.4564 12.0767 23.4086C12.1236 23.3093 12.1562 23.2018 12.2218 23.1137C12.2493 23.0767 12.2823 23.0436 12.305 23.0035C12.3163 22.9835 12.325 22.9617 12.3283 22.9389C12.3315 22.9161 12.3291 22.8922 12.3193 22.8714C12.3107 22.8532 12.2968 22.838 12.2815 22.825C12.2661 22.8121 12.2492 22.8012 12.2328 22.7896C12.2163 22.7781 12.2002 22.7658 12.1872 22.7505C12.1741 22.7353 12.1642 22.7168 12.1618 22.6968C12.1588 22.671 12.1688 22.6449 12.1842 22.6238C12.1996 22.6028 12.22 22.5861 12.2406 22.57C12.3003 22.5232 12.3628 22.4794 12.4307 22.4455C12.5801 22.3709 12.7494 22.3471 12.9159 22.3341C13.2789 22.3059 13.6468 22.3242 14.0043 22.2555C14.0747 22.242 14.1448 22.225 14.2109 22.1974C14.277 22.1698 14.3394 22.1312 14.3882 22.0788C14.4241 22.0401 14.4529 21.9928 14.4599 21.9405C14.4647 21.9046 14.4592 21.8681 14.4523 21.8324C14.4455 21.7968 14.4374 21.7611 14.4371 21.7248C14.4367 21.6809 14.4479 21.6377 14.4633 21.5966C14.4787 21.5555 14.4983 21.5161 14.5158 21.4758C14.6496 21.1666 14.6489 20.8186 14.7059 20.4865C14.7507 20.2251 14.8326 19.964 14.8043 19.7003C14.7961 19.6243 14.7787 19.5491 14.7518 19.4775C14.7108 19.3685 14.6486 19.269 14.5879 19.1696C14.5492 19.1061 14.5108 19.0421 14.4822 18.9735C14.4535 18.9049 14.4348 18.8311 14.4371 18.7568C14.4411 18.6278 14.5071 18.5094 14.5354 18.3834C14.5589 18.2788 14.5552 18.1657 14.5092 18.0689C14.4675 17.9813 14.3924 17.9111 14.3041 17.8709C14.202 17.8245 14.0857 17.8178 13.9741 17.8293C13.8626 17.8409 13.7537 17.8698 13.6437 17.892C13.096 18.0027 12.5304 17.9472 11.9717 17.9575C11.4418 17.9673 10.898 18.0351 10.3916 17.8789C10.3501 17.8661 10.3087 17.8518 10.2655 17.8479C10.2439 17.8459 10.2219 17.8466 10.2008 17.8515C10.1796 17.8563 10.1593 17.8653 10.1424 17.8789C10.1164 17.8998 10.0998 17.9307 10.0913 17.963C10.0829 17.9953 10.0821 18.029 10.0834 18.0623C10.0896 18.2167 10.1404 18.3659 10.2014 18.5079C10.2567 18.6364 10.3215 18.7632 10.3457 18.901C10.3748 19.0669 10.3429 19.2379 10.2932 19.3989C10.1924 19.7253 10.0201 20.0242 9.88015 20.3358C9.73554 20.6577 9.62517 20.994 9.48675 21.3186C9.45588 21.391 9.42355 21.463 9.40017 21.5381C9.37679 21.6133 9.36247 21.6922 9.36873 21.7707C9.37923 21.9024 9.44708 22.0238 9.53265 22.1245C9.60808 22.2133 9.69831 22.2898 9.76419 22.3859C9.82173 22.4698 9.85932 22.5681 9.86702 22.6696C9.87069 22.718 9.86732 22.7681 9.84737 22.8124C9.83936 22.8302 9.82857 22.8475 9.82722 22.867C9.82613 22.8825 9.83119 22.8977 9.83315 22.9131C9.83412 22.9208 9.83432 22.9287 9.83259 22.9363C9.83086 22.9438 9.82709 22.9511 9.82114 22.9561C9.81701 22.9596 9.81193 22.9618 9.80664 22.9629C9.80135 22.964 9.79585 22.9637 9.79059 22.9626C9.78006 22.9603 9.77066 22.9542 9.76273 22.9469C9.74688 22.9323 9.73607 22.9126 9.71883 22.8996C9.70304 22.8878 9.68321 22.8827 9.66368 22.8799C9.64415 22.8771 9.62428 22.8762 9.60512 22.8715C9.56861 22.8625 9.53664 22.84 9.51011 22.8134C9.48357 22.7868 9.46175 22.7559 9.43886 22.7261C9.41597 22.6963 9.39154 22.6671 9.36112 22.645C9.3307 22.6229 9.29343 22.6083 9.25594 22.6112C9.21881 22.6141 9.18439 22.6339 9.1584 22.6605C9.13241 22.6872 9.11407 22.7203 9.09899 22.7544C9.08391 22.7884 9.07179 22.8237 9.05634 22.8576C9.0409 22.8914 9.02182 22.9242 8.99499 22.9501C8.94962 22.9937 8.8865 23.0134 8.82473 23.0257C8.76296 23.038 8.69939 23.0446 8.64093 23.068C8.57927 23.0927 8.52622 23.1352 8.47937 23.1822C8.43253 23.2293 8.39104 23.2814 8.34587 23.3301C8.17099 23.5186 7.94526 23.6519 7.716 23.7685C7.48675 23.8851 7.2496 23.9883 7.03453 24.1294C6.99781 24.1535 6.96141 24.1788 6.92053 24.1949C6.87966 24.2109 6.83302 24.2169 6.79193 24.2014C6.77126 24.1936 6.75256 24.1805 6.73862 24.1634C6.72469 24.1462 6.7156 24.1251 6.71325 24.1032C6.7101 24.0738 6.71892 24.0442 6.73258 24.018C6.74624 23.9918 6.76462 23.9685 6.78219 23.9447C6.79976 23.921 6.81681 23.8964 6.82729 23.8688C6.83776 23.8412 6.84121 23.8099 6.83127 23.7821C6.82584 23.7669 6.81657 23.7532 6.80517 23.7418C6.79378 23.7303 6.78028 23.7211 6.76592 23.7137C6.73719 23.6989 6.70534 23.6914 6.67391 23.6838C6.44609 23.6291 6.22133 23.5616 5.99201 23.5135C5.78735 23.4706 5.57747 23.4432 5.36912 23.4611C5.32299 23.465 5.27689 23.4712 5.2306 23.4702C5.18431 23.4691 5.13714 23.4604 5.09742 23.4366C5.07251 23.4217 5.05136 23.4014 5.02934 23.3825C5.00732 23.3636 4.98364 23.3456 4.95605 23.3366C4.93394 23.3294 4.91011 23.3282 4.88705 23.3313C4.86398 23.3343 4.84161 23.3414 4.82009 23.3502C4.79307 23.3613 4.76639 23.3755 4.73724 23.3775C4.72266 23.3784 4.70763 23.3762 4.69473 23.3694C4.68184 23.3625 4.67128 23.3507 4.66755 23.3366C4.66416 23.3237 4.66655 23.3099 4.67189 23.2977C4.67723 23.2855 4.68535 23.2748 4.69378 23.2645C4.8047 23.1291 4.97282 23.0559 5.1359 22.9921C5.31709 22.9212 5.50306 22.8551 5.69696 22.8387C5.71504 22.8371 5.73322 22.836 5.75105 22.8327C5.76889 22.8293 5.78652 22.8236 5.80161 22.8135C5.8167 22.8034 5.82911 22.7886 5.83409 22.7712C5.83658 22.7625 5.83718 22.7532 5.83549 22.7443C5.83381 22.7353 5.82982 22.7268 5.82379 22.7201C5.81338 22.7083 5.79764 22.7025 5.78206 22.7007C5.76648 22.699 5.75075 22.7009 5.73514 22.7024C5.71953 22.7038 5.70359 22.7048 5.68833 22.7011C5.6807 22.6993 5.6733 22.6964 5.6668 22.692C5.6603 22.6876 5.65472 22.6818 5.65106 22.6748C5.64591 22.6651 5.64481 22.6534 5.64706 22.6426C5.64931 22.6318 5.65478 22.6218 5.66191 22.6134C5.67616 22.5965 5.69641 22.586 5.71618 22.5762C5.7846 22.542 5.85418 22.5098 5.92644 22.4848C6.09205 22.4275 6.26922 22.409 6.44443 22.4128C6.64811 22.4172 6.85046 22.4512 7.0542 22.4521C7.17668 22.4526 7.29891 22.4411 7.42138 22.439C7.51383 22.4374 7.60674 22.4411 7.69841 22.429C7.79008 22.4169 7.88207 22.3875 7.95247 22.3276C8.01173 22.2772 8.05234 22.208 8.08198 22.1361C8.11163 22.0642 8.13129 21.9887 8.15573 21.9148C8.27636 21.5504 8.50961 21.236 8.72617 20.919C8.91309 20.6453 9.09169 20.3613 9.19825 20.0476C9.24833 19.9001 9.28223 19.7436 9.26382 19.5889C9.24727 19.4499 9.18896 19.3161 9.19169 19.1762C9.19339 19.0893 9.21875 19.0044 9.2512 18.9238C9.28365 18.8431 9.32333 18.7655 9.35561 18.6848C9.39768 18.5796 9.42714 18.4687 9.43442 18.3557C9.4417 18.2426 9.42629 18.1273 9.38184 18.0231C9.35627 17.9631 9.32131 17.9071 9.30144 17.845C9.29194 17.8154 9.28601 17.7847 9.27716 17.7548C9.26831 17.725 9.25623 17.6955 9.23618 17.6716C9.21898 17.6512 9.19639 17.6356 9.1719 17.6249C9.14741 17.6142 9.12104 17.6082 9.09447 17.6053C9.04135 17.5994 8.98771 17.6053 8.93427 17.6063C8.76772 17.6091 8.60462 17.5635 8.44423 17.5186C8.19181 17.4479 7.93832 17.3779 7.69676 17.2762C7.35015 17.1302 7.03431 16.9216 6.71325 16.7258C6.39302 16.5305 6.06327 16.3451 5.7822 16.0968C5.5329 15.8766 5.32731 15.6114 5.13964 15.3368C4.87214 14.9455 4.63795 14.5318 4.43151 14.1051C4.28188 13.7958 4.14637 13.4786 4.05122 13.1485C3.93714 12.7528 3.88206 12.3415 3.86763 11.9299C3.8537 11.5325 3.87733 11.1348 3.89386 10.7375C3.91501 10.2288 3.92484 9.71664 4.02499 9.21744C4.09038 8.89153 4.19426 8.57292 4.33972 8.27398C4.52854 7.8859 4.78583 7.53391 5.07407 7.21259C5.33702 6.91945 5.62809 6.64832 5.84776 6.32154C6.02517 6.05763 6.1524 5.76201 6.24117 5.4567C6.2948 5.27225 6.3347 5.08376 6.35919 4.89325C6.39142 4.64245 6.39646 4.38455 6.33296 4.13979C6.28448 3.95289 6.1958 3.77588 6.07069 3.62875C5.93044 3.4638 5.74478 3.33777 5.5396 3.2684C5.27819 3.18001 4.99598 3.1841 4.72001 3.18322C4.41836 3.18227 4.11679 3.17424 3.81518 3.17012C3.60604 3.16727 3.39413 3.16593 3.19229 3.11116C3.07486 3.07929 2.96271 3.02976 2.84478 2.99977C2.68913 2.96019 2.52634 2.95548 2.36614 2.96702C2.05235 2.98961 1.74672 3.07315 1.43943 3.14052C1.11207 3.2123 0.781052 3.26599 0.451576 3.32737C0.418092 3.3336 0.38431 3.33995 0.350263 3.33896C0.316216 3.33798 0.281403 3.32906 0.254875 3.30771C0.227555 3.28573 0.210938 3.25103 0.210938 3.21598C0.210938 3.18093 0.227549 3.1462 0.254868 3.12421Z" fill="black"/>
</svg>
