<svg width="120" height="36" viewBox="0 0 120 36" fill="none" xmlns="http://www.w3.org/2000/svg">
<path fill-rule="evenodd" clip-rule="evenodd" d="M18.0272 28.1382C19.251 27.5968 20.5035 28.1952 21.0506 29.3493C21.7848 30.9309 20.7626 33.5954 19.179 35.9606H23.2677C24.405 33.4671 24.9089 31.8998 24.9089 30.2755C24.9089 26.4854 21.6408 24.3481 18.9342 24.3481C14.4856 24.3481 11.7214 28.9076 13.4922 32.7832L16.7891 31.1731C16.4148 30.4037 16.53 28.7937 18.0272 28.1382Z" fill="#979DA4"/>
<path fill-rule="evenodd" clip-rule="evenodd" d="M31.2865 5.3408C36.3686 5.3408 42.372 10.057 42.3 16.3263L45.7985 24.3482H42.5448C42.5448 26.9129 42.5448 29.4634 42.5448 32.0281H36.2966L34.6841 35.9464H26.4635C29.0406 31.0877 28.148 27.4258 26.1612 24.7756C24.5344 22.6241 23.7713 20.3729 23.7713 18.5063C23.7713 14.0893 27.4425 10.9404 30.8114 10.9262C33.7051 10.9119 35.9367 12.9779 35.9367 15.4287C35.9367 17.338 34.9433 19.4182 32.9997 20.0452C32.1071 20.3301 31.3585 19.9169 31.0129 19.3185C30.4803 18.3781 30.9697 17.4662 31.6752 17.0245C32.1071 16.7538 32.4958 16.2836 32.467 15.5997C32.4382 14.5738 31.4592 13.8044 30.4083 14.0466C28.7382 14.4313 27.1546 16.2408 27.1546 18.4636C27.1546 21.2135 29.9188 23.4933 32.4958 23.4933C36.1382 23.4933 39.4927 19.6604 39.1759 15.6139C38.8736 11.7383 35.6055 8.4612 31.3009 8.4612C28.3351 8.4612 26.8379 8.97414 23.2099 11.8951C19.8122 14.7305 15.5363 15.7136 12.2683 12.5932C9.33131 9.80055 10.0943 4.34341 13.7511 2.5766C16.976 1.02353 19.8842 1.83569 21.9429 4.20092L19.4091 5.99622C18.5885 4.94184 16.6161 4.34341 15.0181 5.41204C13.348 6.52341 13.1897 8.58943 14.0679 9.90029C15.6083 12.2085 18.4013 11.6386 20.4313 10.1425C24.5488 7.0791 26.2044 5.3408 31.2865 5.3408Z" fill="#979DA4"/>
<path fill-rule="evenodd" clip-rule="evenodd" d="M38.5997 5.52568L40.3993 2.98946C38.3261 1.55037 35.8931 0.567227 33.2153 0.196768L32.7834 3.27443C34.9573 3.55939 36.9297 4.35731 38.5997 5.52568ZM30.3071 3.14619L30.1487 0.0400391C27.6149 0.168275 25.0811 0.866444 22.7344 2.20579L24.3036 4.89874C26.204 3.81586 28.2628 3.24593 30.3071 3.14619Z" fill="#979DA4"/>
<path fill-rule="evenodd" clip-rule="evenodd" d="M16.8319 9.3011C17.4798 9.3011 18.0125 8.77391 18.0125 8.13273C18.0125 7.49155 17.4798 6.96436 16.8319 6.96436C16.1841 6.96436 15.6514 7.49155 15.6514 8.13273C15.6514 8.77391 16.1697 9.3011 16.8319 9.3011Z" fill="#979DA4"/>
<path fill-rule="evenodd" clip-rule="evenodd" d="M5.63139 12.1366C6.79753 10.9825 8.66911 10.9825 9.83526 12.1366C11.0014 13.2907 11.0014 15.143 9.83526 16.2971C8.66911 17.4512 6.79753 17.4512 5.63139 16.2971C4.47964 15.143 4.47964 13.2765 5.63139 12.1366ZM6.36562 14.2169L7.73332 15.5705L9.10102 14.2169L7.73332 12.8633L6.36562 14.2169Z" fill="#979DA4"/>
<path fill-rule="evenodd" clip-rule="evenodd" d="M6.27894 5.35449C7.58905 5.35449 8.65441 6.40888 8.64002 7.71973C8.64002 9.01633 7.57465 10.0707 6.26454 10.0565C4.95443 10.0565 3.88907 9.00208 3.90346 7.70548C3.90346 6.39463 4.96883 5.35449 6.27894 5.35449ZM5.50151 6.93607V8.46064H7.04197V6.93607H5.50151Z" fill="#979DA4"/>
<path d="M8.71909 1.8984L7.68652 3.02979L8.8297 4.05171L9.86227 2.92033L8.71909 1.8984Z" fill="#979DA4"/>
<path fill-rule="evenodd" clip-rule="evenodd" d="M5.15621 17.7651C3.71653 19.4749 2.27685 21.1847 0.851562 22.8945L2.60798 24.3479L5.45855 20.971L8.8706 23.7922L11.7212 20.4153L15.1332 23.2365L17.9838 19.8596L21.3958 22.6666L22.8643 20.9282C21.1367 19.5034 19.4091 18.0786 17.6815 16.668C16.7313 17.7936 15.7811 18.9192 14.8309 20.0448C13.6935 19.1044 12.5562 18.1641 11.4188 17.2237C10.4686 18.3493 9.51845 19.4749 8.56826 20.6005C7.43091 19.6459 6.29356 18.7055 5.15621 17.7651Z" fill="#979DA4"/>
<path fill-rule="evenodd" clip-rule="evenodd" d="M5.3291 25.146L11.3326 25.1602V25.1745L6.29369 28.0527L7.28708 29.7482L8.23726 31.3868L9.95049 30.4037L8.9859 28.7651L11.3326 27.44V32.2702H5.3291V25.146Z" fill="#979DA4"/>
<path fill-rule="evenodd" clip-rule="evenodd" d="M58.2519 12.3509H60.5266V21.0852H58.2519V20.1733C57.7048 20.7147 56.6395 21.2847 55.4733 21.2847C52.9971 21.2847 51.0967 19.1332 51.0967 16.7109C51.0967 14.2887 52.9395 12.1372 55.4733 12.1372C56.7114 12.1372 57.7048 12.7214 58.2519 13.3056V12.3509ZM117.725 12.3509H120V21.0852H117.725V20.1733C117.178 20.7147 116.113 21.2847 114.947 21.2847C112.47 21.2847 110.57 19.1332 110.57 16.7109C110.57 14.2887 112.413 12.1372 114.947 12.1372C116.185 12.1372 117.178 12.7214 117.725 13.3056V12.3509ZM115.235 19.1759C116.53 19.1759 117.711 18.15 117.711 16.7252C117.711 15.4571 116.689 14.2745 115.235 14.2745C113.924 14.2745 112.758 15.3004 112.758 16.7252C112.758 18.0075 113.78 19.1759 115.235 19.1759ZM55.7612 19.1759C57.057 19.1759 58.2375 18.15 58.2375 16.7252C58.2375 15.4571 57.2153 14.2745 55.7612 14.2745C54.4511 14.2745 53.285 15.3004 53.285 16.7252C53.285 18.0075 54.3072 19.1759 55.7612 19.1759ZM105.92 21.2562C103.328 21.2562 101.313 19.1617 101.313 16.7109C101.313 14.2317 103.3 12.1372 105.92 12.1372C107.547 12.1372 109.058 12.9921 109.879 14.3742L107.964 15.4856C107.561 14.8159 106.798 14.3172 105.949 14.3172C104.538 14.3172 103.544 15.4428 103.544 16.6967C103.544 18.0503 104.566 19.0762 105.949 19.0762C106.798 19.0762 107.575 18.5632 107.964 17.8651L109.879 19.0049C109.087 20.3728 107.575 21.2562 105.92 21.2562Z" fill="#979DA4"/>
<path fill-rule="evenodd" clip-rule="evenodd" d="M55.7613 26.2574C55.315 26.2147 54.9983 26.3002 54.7823 26.4854C54.5664 26.6706 54.4656 26.9699 54.4656 27.4116V27.5968H55.7613V28.1667H54.4656V32.0565H53.8753V28.1525H53.1123V27.5825H53.8753V27.3973C53.8753 26.8131 54.0337 26.3714 54.3648 26.0722C54.696 25.773 55.1566 25.6448 55.7613 25.6875V26.2574ZM56.985 28.3235C57.2586 27.782 57.7337 27.5113 58.4103 27.5113V28.0812C58.0072 28.0812 57.6617 28.1952 57.3882 28.4374C57.1146 28.6797 56.985 29.0501 56.985 29.5631V32.0423H56.3948V27.5825H56.985V28.3235ZM61.045 27.4828C61.7072 27.4828 62.2543 27.7108 62.6718 28.181C63.0893 28.6512 63.2909 29.2069 63.2909 29.8338C63.2909 29.905 63.2909 29.9905 63.2765 30.1045H59.3173C59.3749 30.5605 59.5765 30.9167 59.8932 31.1874C60.2243 31.4581 60.6274 31.5863 61.1025 31.5863C61.4481 31.5863 61.736 31.5151 61.9952 31.3726C62.2399 31.2301 62.4271 31.0449 62.5566 30.8169L63.0749 31.1161C62.8734 31.4296 62.5998 31.6861 62.2687 31.8713C61.9232 32.0565 61.5344 32.142 61.0881 32.142C60.3827 32.142 59.8068 31.9283 59.3605 31.4866C58.9142 31.0449 58.6983 30.4892 58.6983 29.8053C58.6983 29.1356 58.9142 28.5799 59.3605 28.1382C59.7924 27.6965 60.3539 27.4828 61.045 27.4828ZM61.045 28.0527C60.5699 28.0527 60.1811 28.1952 59.8644 28.4659C59.5477 28.7367 59.3605 29.1071 59.3029 29.5488H62.6718C62.6142 29.0786 62.427 28.7082 62.1247 28.4517C61.808 28.181 61.4481 28.0527 61.045 28.0527ZM66.3142 27.4828C66.9765 27.4828 67.5235 27.7108 67.941 28.181C68.3585 28.6512 68.5601 29.2069 68.5601 29.8338C68.5601 29.905 68.5601 29.9905 68.5457 30.1045H64.5866C64.6442 30.5605 64.8457 30.9167 65.1625 31.1874C65.4936 31.4581 65.8967 31.5863 66.3718 31.5863C66.7173 31.5863 67.0052 31.5151 67.2644 31.3726C67.5091 31.2301 67.6963 31.0449 67.8259 30.8169L68.3441 31.1161C68.1426 31.4296 67.8691 31.6861 67.5379 31.8713C67.1924 32.0565 66.8037 32.142 66.3574 32.142C65.6519 32.142 65.0761 31.9283 64.6298 31.4866C64.1835 31.0449 63.9675 30.4892 63.9675 29.8053C63.9675 29.1356 64.1835 28.5799 64.6298 28.1382C65.0617 27.6965 65.6232 27.4828 66.3142 27.4828ZM66.3142 28.0527C65.8391 28.0527 65.4504 28.1952 65.1337 28.4659C64.8169 28.7367 64.6298 29.1071 64.5722 29.5488H67.941C67.8835 29.0786 67.6963 28.7082 67.394 28.4517C67.0772 28.181 66.7173 28.0527 66.3142 28.0527ZM69.4959 32.0565V25.5308H70.0862V32.0565H69.4959ZM75.2402 27.5825H75.8305V32.0423H75.2402V31.1731C74.8227 31.8286 74.218 32.1563 73.4118 32.1563C72.764 32.1563 72.2169 31.9283 71.7706 31.4723C71.3099 31.0164 71.0939 30.4607 71.0939 29.8053C71.0939 29.1499 71.3243 28.5942 71.7706 28.1382C72.2313 27.6823 72.7784 27.4543 73.4118 27.4543C74.218 27.4543 74.8227 27.782 75.2402 28.4374V27.5825ZM72.2025 31.0734C72.548 31.4154 72.9655 31.5863 73.4694 31.5863C73.9733 31.5863 74.3908 31.4154 74.7363 31.0734C75.0819 30.7314 75.2546 30.3182 75.2546 29.8195C75.2546 29.3208 75.0819 28.9076 74.7363 28.5657C74.3908 28.2237 73.9733 28.0527 73.4694 28.0527C72.9655 28.0527 72.548 28.2237 72.2025 28.5657C71.857 28.9076 71.6842 29.3208 71.6842 29.8195C71.6842 30.3182 71.857 30.7314 72.2025 31.0734ZM79.2138 27.4828C79.7608 27.4828 80.1927 27.6538 80.5095 27.9815C80.8262 28.3092 80.9846 28.7509 80.9846 29.3208V32.0565H80.3943V29.3208C80.3943 28.9219 80.2935 28.6084 80.0776 28.3947C79.8616 28.181 79.5593 28.067 79.1706 28.067C78.7387 28.067 78.3787 28.2095 78.1196 28.4802C77.8461 28.7509 77.7165 29.1641 77.7165 29.734V32.0708H77.1262V27.5825H77.7165V28.2807C78.0332 27.7535 78.5371 27.4828 79.2138 27.4828ZM84.2383 32.1563C83.5616 32.1563 82.9857 31.9283 82.5394 31.4866C82.0931 31.0449 81.8628 30.475 81.8628 29.8195C81.8628 29.1641 82.0931 28.6084 82.5394 28.1525C82.9857 27.6965 83.5616 27.4828 84.2383 27.4828C84.6846 27.4828 85.0877 27.5825 85.4332 27.7963C85.7931 28.01 86.0522 28.295 86.2106 28.6512L85.7211 28.9219C85.6059 28.6512 85.4044 28.4374 85.1452 28.2807C84.8717 28.124 84.5694 28.0385 84.2383 28.0385C83.7344 28.0385 83.3168 28.2095 82.9713 28.5514C82.6258 28.8934 82.453 29.3066 82.453 29.8053C82.453 30.304 82.6258 30.7172 82.9713 31.0592C83.3168 31.4011 83.7344 31.5721 84.2383 31.5721C84.5694 31.5721 84.8717 31.4866 85.1452 31.3299C85.4044 31.1731 85.6203 30.9594 85.7643 30.6887L86.2538 30.9737C86.0667 31.3299 85.7931 31.6148 85.4332 31.8286C85.0733 32.0565 84.6846 32.1563 84.2383 32.1563ZM89.162 27.4828C89.8242 27.4828 90.3713 27.7108 90.7888 28.181C91.2063 28.6512 91.4079 29.2069 91.4079 29.8338C91.4079 29.905 91.4079 29.9905 91.3935 30.1045H87.4199C87.4775 30.5605 87.6791 30.9167 87.9958 31.1874C88.327 31.4581 88.7301 31.5863 89.2052 31.5863C89.5507 31.5863 89.8386 31.5151 90.0978 31.3726C90.3425 31.2301 90.5297 31.0449 90.6592 30.8169L91.1775 31.1161C90.976 31.4296 90.7024 31.6861 90.3713 31.8713C90.0258 32.0565 89.6371 32.142 89.1908 32.142C88.4853 32.142 87.9094 31.9283 87.4631 31.4866C87.0168 31.0449 86.8009 30.4892 86.8009 29.8053C86.8009 29.1356 87.0168 28.5799 87.4631 28.1382C87.9094 27.6965 88.4709 27.4828 89.162 27.4828ZM89.162 28.0527C88.6869 28.0527 88.2982 28.1952 87.9814 28.4659C87.6647 28.7367 87.4775 29.1071 87.4199 29.5488H90.7888C90.7312 29.0786 90.5441 28.7082 90.2417 28.4517C89.925 28.181 89.5651 28.0527 89.162 28.0527ZM92.7468 31.9995C92.646 32.0993 92.5308 32.142 92.4012 32.142C92.2573 32.142 92.1421 32.0993 92.0557 31.9995C91.9549 31.8998 91.9118 31.7858 91.9118 31.6576C91.9118 31.5151 91.9549 31.4011 92.0557 31.3156C92.1565 31.2159 92.2717 31.1731 92.4012 31.1731C92.5452 31.1731 92.6604 31.2159 92.7468 31.3156C92.8476 31.4154 92.8907 31.5293 92.8907 31.6576C92.8907 31.7858 92.8332 31.8998 92.7468 31.9995ZM97.5841 25.8015H98.1744V32.0565H97.5841V31.1874C97.1666 31.8428 96.5619 32.1705 95.7557 32.1705C95.1079 32.1705 94.5608 31.9426 94.1145 31.4866C93.6538 31.0307 93.4378 30.475 93.4378 29.8195C93.4378 29.1641 93.6682 28.6084 94.1145 28.1525C94.5752 27.6965 95.1223 27.4686 95.7557 27.4686C96.5619 27.4686 97.1666 27.7963 97.5841 28.4517V25.8015ZM94.5464 31.0734C94.8919 31.4154 95.3094 31.5863 95.8133 31.5863C96.3172 31.5863 96.7347 31.4154 97.0802 31.0734C97.4257 30.7314 97.5985 30.3182 97.5985 29.8195C97.5985 29.3208 97.4257 28.9076 97.0802 28.5657C96.7347 28.2237 96.3172 28.0527 95.8133 28.0527C95.3094 28.0527 94.8919 28.2237 94.5464 28.5657C94.2009 28.9076 94.0281 29.3208 94.0281 29.8195C94.0281 30.3182 94.2009 30.7314 94.5464 31.0734ZM100.046 26.5139C99.9596 26.5994 99.8588 26.6421 99.7436 26.6421C99.6285 26.6421 99.5277 26.5994 99.4413 26.5139C99.3549 26.4284 99.3117 26.3287 99.3117 26.2147C99.3117 26.1007 99.3549 26.001 99.4413 25.9155C99.5277 25.83 99.6285 25.7872 99.7436 25.7872C99.8588 25.7872 99.9596 25.83 100.046 25.9155C100.132 26.001 100.176 26.1007 100.176 26.2147C100.176 26.3287 100.132 26.4284 100.046 26.5139ZM99.4413 32.0565V27.5825H100.032V32.0423H99.4413V32.0565ZM105.186 27.5825H105.776V31.8713C105.776 32.5125 105.56 33.0254 105.114 33.3959C104.667 33.7663 104.135 33.9516 103.516 33.9516C102.45 33.9516 101.745 33.5811 101.37 32.8687L101.889 32.5695C102.162 33.1109 102.695 33.3816 103.501 33.3816C104.019 33.3816 104.423 33.2392 104.725 32.9684C105.027 32.6977 105.171 32.3273 105.171 31.8713V31.1731C104.754 31.8286 104.149 32.1563 103.343 32.1563C102.695 32.1563 102.148 31.9283 101.702 31.4723C101.241 31.0164 101.025 30.4607 101.025 29.8053C101.025 29.1499 101.255 28.5942 101.702 28.1382C102.162 27.6823 102.709 27.4543 103.343 27.4543C104.149 27.4543 104.754 27.782 105.171 28.4374V27.5825H105.186ZM102.134 31.0734C102.479 31.4154 102.897 31.5863 103.4 31.5863C103.904 31.5863 104.322 31.4154 104.667 31.0734C105.013 30.7314 105.186 30.3182 105.186 29.8195C105.186 29.3208 105.013 28.9076 104.667 28.5657C104.322 28.2237 103.904 28.0527 103.4 28.0527C102.897 28.0527 102.479 28.2237 102.134 28.5657C101.788 28.9076 101.615 29.3208 101.615 29.8195C101.63 30.3182 101.802 30.7314 102.134 31.0734ZM107.647 26.5139C107.561 26.5994 107.46 26.6421 107.345 26.6421C107.23 26.6421 107.129 26.5994 107.043 26.5139C106.956 26.4284 106.913 26.3287 106.913 26.2147C106.913 26.1007 106.956 26.001 107.043 25.9155C107.129 25.83 107.23 25.7872 107.345 25.7872C107.46 25.7872 107.561 25.83 107.647 25.9155C107.734 26.001 107.777 26.1007 107.777 26.2147C107.777 26.3287 107.734 26.4284 107.647 26.5139ZM107.043 32.0565V27.5825H107.633V32.0423H107.043V32.0565ZM111.29 28.1525H109.994V30.8597C109.994 31.1019 110.037 31.2729 110.138 31.3869C110.239 31.4866 110.383 31.5436 110.57 31.5436C110.757 31.5436 111.002 31.5436 111.29 31.5293V32.0423C110.656 32.142 110.181 32.0993 109.865 31.9141C109.548 31.7288 109.39 31.3726 109.39 30.8597V28.1525H108.439V27.5825H109.39V26.5139L109.98 26.3287V27.5825H111.275V28.1525H111.29ZM115.897 27.5825H116.487V32.0423H115.897V31.1731C115.479 31.8286 114.875 32.1563 114.068 32.1563C113.421 32.1563 112.874 31.9283 112.427 31.4723C111.967 31.0164 111.751 30.4607 111.751 29.8053C111.751 29.1499 111.981 28.5942 112.427 28.1382C112.888 27.6823 113.435 27.4543 114.068 27.4543C114.875 27.4543 115.479 27.782 115.897 28.4374V27.5825ZM112.859 31.0734C113.205 31.4154 113.622 31.5863 114.126 31.5863C114.63 31.5863 115.047 31.4154 115.393 31.0734C115.739 30.7314 115.911 30.3182 115.911 29.8195C115.911 29.3208 115.739 28.9076 115.393 28.5657C115.047 28.2237 114.63 28.0527 114.126 28.0527C113.622 28.0527 113.205 28.2237 112.859 28.5657C112.514 28.9076 112.341 29.3208 112.341 29.8195C112.341 30.3182 112.514 30.7314 112.859 31.0734ZM117.754 32.0565V25.5308H118.344V32.0565H117.754Z" fill="#979DA4"/>
<path fill-rule="evenodd" clip-rule="evenodd" d="M62.9453 8.91699C62.9453 12.9778 62.9453 17.0243 62.9453 21.0851H65.22V16.3689H70.0142V14.1177H65.22V11.1682H70.1581V8.91699H62.9453ZM100.19 21.0851V18.8339H94.9207V16.1267H99.758V13.8754H94.9207V11.1682H100.19V8.91699H92.646C92.646 12.9778 92.646 17.0243 92.646 21.0851H100.19ZM90.6736 21.0851V18.8339H85.4044V16.1267H90.2417V13.8754H85.4044V11.1682H90.6736V8.91699H83.1297C83.1297 12.9778 83.1297 17.0243 83.1297 21.0851H90.6736ZM81.546 21.0851L78.5659 16.1979C80.0919 15.7135 81.1861 14.3029 81.1861 12.6501C81.1861 10.5983 79.5017 8.91699 77.4141 8.91699H72.1161C72.1161 12.9778 72.1161 17.0243 72.1161 21.0851H74.3908V16.3689H76.104L78.9834 21.0851C79.8328 21.0851 80.6822 21.0851 81.546 21.0851ZM77.4141 14.1177H74.3908V11.1682H77.4141C78.2347 11.1682 78.9114 11.8237 78.9114 12.6501C78.897 13.448 78.2347 14.1177 77.4141 14.1177Z" fill="#979DA4"/>
</svg>
