<svg width="217" height="64" viewBox="0 0 217 64" fill="none" xmlns="http://www.w3.org/2000/svg">
<path d="M3.52006 52.2836C2.84006 52.4196 2.29606 52.2382 1.88806 51.7396C1.52539 51.2409 1.29873 50.7422 1.20806 50.2436C1.07206 48.7476 1.00406 47.1382 1.00406 45.4156C1.00406 42.2876 1.20806 39.0236 1.61606 35.6236C2.06939 32.1782 2.70406 28.8236 3.52006 25.5596C4.33606 22.2502 5.31073 19.2582 6.44406 16.5836C8.57473 11.5969 11.4307 7.60757 15.0121 4.61557C18.5934 1.57824 22.9001 0.0595703 27.9321 0.0595703C31.3321 0.0595703 34.4601 0.898237 37.3161 2.57557C40.1721 4.20757 42.6654 6.3609 44.7961 9.03557C46.9267 11.7102 48.5814 14.6342 49.7601 17.8076C50.8481 20.3462 51.8001 23.1796 52.6161 26.3076C53.4321 29.3902 54.0667 32.5409 54.5201 35.7596C54.9734 38.9782 55.2001 42.0836 55.2001 45.0756C55.2001 45.9822 55.1774 46.8889 55.1321 47.7956C55.0867 48.6569 55.0187 49.4956 54.9281 50.3116C54.8827 50.9009 54.6561 51.3769 54.2481 51.7396C53.8401 52.1476 53.2734 52.3062 52.5481 52.2156C51.1427 52.0796 50.5081 51.2862 50.6441 49.8356C50.7801 48.3849 50.8481 46.8889 50.8481 45.3476C50.8481 42.3556 50.6214 39.2502 50.1681 36.0316C49.7147 32.7676 49.0801 29.6169 48.2641 26.5796C47.4481 23.4969 46.4507 20.7542 45.2721 18.3516C44.0481 15.6769 42.5747 13.2969 40.8521 11.2116C39.1747 9.12624 37.2481 7.47157 35.0721 6.24757C32.9414 5.02357 30.5614 4.41157 27.9321 4.41157C23.8067 4.41157 20.3614 5.63557 17.5961 8.08357C14.8761 10.4862 12.6094 13.6142 10.7961 17.4676C10.0707 19.0089 9.41339 20.6636 8.82406 22.4316C8.28006 24.1996 7.78139 26.0809 7.32806 28.0756H45.2721C45.9067 28.0756 46.4281 28.2796 46.8361 28.6876C47.2441 29.0956 47.4481 29.6169 47.4481 30.2516C47.4481 30.8862 47.2441 31.4076 46.8361 31.8156C46.4281 32.2236 45.9067 32.4276 45.2721 32.4276H6.51206C6.14939 34.5129 5.87739 36.7342 5.69606 39.0916C5.51473 41.4489 5.42406 43.7382 5.42406 45.9596C5.42406 46.6849 5.42406 47.3649 5.42406 47.9996C5.42406 48.6796 5.44673 49.3369 5.49206 49.9716C5.58273 50.5609 5.42406 51.0596 5.01606 51.4676C4.65339 51.9209 4.15473 52.1929 3.52006 52.2836Z" fill="white"/>
<path d="M73.5261 50.8826C72.9887 50.8826 72.6477 50.5726 72.5031 49.9526C72.4617 49.1672 72.4204 48.2062 72.3791 47.0696C72.3377 45.9122 72.3067 44.6826 72.2861 43.3806C72.2654 42.0579 72.2551 40.7662 72.2551 39.5056C72.2551 38.0796 72.2757 36.7672 72.3171 35.5686C72.3584 34.3699 72.4204 33.4606 72.5031 32.8406C72.5857 32.5719 72.7097 32.3756 72.8751 32.2516C73.0611 32.1069 73.2471 32.0242 73.4331 32.0036C73.8257 31.9622 74.2287 31.9312 74.6421 31.9106C75.0761 31.8899 75.5204 31.8796 75.9751 31.8796C77.3804 31.8796 78.8167 31.9932 80.2841 32.2206C81.7721 32.4272 83.0224 32.7682 84.0351 33.2436C85.5024 33.9049 86.6494 34.7626 87.4761 35.8166C88.3234 36.8499 88.7471 38.1312 88.7471 39.6606C88.7471 41.0246 88.4061 42.1612 87.7241 43.0706C87.0627 43.9592 86.1534 44.6619 84.9961 45.1786C83.8594 45.6952 82.5574 46.0776 81.0901 46.3256C80.0774 46.4909 78.9511 46.6046 77.7111 46.6666C76.4917 46.7286 75.3654 46.7492 74.3321 46.7286C74.3321 46.7286 74.3321 46.8836 74.3321 47.1936C74.3527 47.5036 74.3734 47.8652 74.3941 48.2786C74.4147 48.6919 74.4354 49.0536 74.4561 49.3636C74.4767 49.6736 74.4871 49.8286 74.4871 49.8286C74.5491 50.4692 74.2287 50.8206 73.5261 50.8826ZM74.3011 44.7446C75.4584 44.7446 76.5537 44.7136 77.5871 44.6516C78.6204 44.5896 79.6744 44.4862 80.7491 44.3416C82.5471 44.0522 83.9937 43.5562 85.0891 42.8536C86.1844 42.1509 86.7321 41.0866 86.7321 39.6606C86.7321 38.5032 86.4014 37.5629 85.7401 36.8396C85.0994 36.0956 84.2417 35.4962 83.1671 35.0416C82.1337 34.6282 81.0281 34.3389 79.8501 34.1736C78.6721 33.9876 77.4631 33.8946 76.2231 33.8946C75.9131 33.8946 75.6031 33.9049 75.2931 33.9256C75.0037 33.9256 74.7041 33.9359 74.3941 33.9566C74.3734 34.3699 74.3527 34.9486 74.3321 35.6926C74.3321 36.4366 74.3217 37.2529 74.3011 38.1416C74.3011 39.0096 74.2907 39.8776 74.2701 40.7456C74.2701 41.6136 74.2701 42.3782 74.2701 43.0396C74.2701 43.4322 74.2701 43.7836 74.2701 44.0936C74.2907 44.3829 74.3011 44.5999 74.3011 44.7446Z" fill="white"/>
<path d="M111.408 50.4486C111.119 50.4486 110.881 50.3556 110.695 50.1696C110.509 49.9836 110.416 49.7459 110.416 49.4566V35.5686C110.003 35.5686 109.434 35.5789 108.711 35.5996C107.988 35.5996 107.233 35.6099 106.448 35.6306C105.663 35.6512 104.96 35.6719 104.34 35.6926C103.72 35.6926 103.307 35.7029 103.1 35.7236C102.831 35.7236 102.604 35.6409 102.418 35.4756C102.253 35.2896 102.149 35.0622 102.108 34.7936C102.108 34.1736 102.418 33.8326 103.038 33.7706C103.472 33.7292 104.144 33.7086 105.053 33.7086C105.962 33.6879 107.006 33.6776 108.184 33.6776C109.383 33.6569 110.592 33.6466 111.811 33.6466C113.423 33.6466 114.952 33.6569 116.399 33.6776C117.846 33.6776 118.951 33.6879 119.716 33.7086C120.005 33.7086 120.243 33.8119 120.429 34.0186C120.636 34.2046 120.718 34.4422 120.677 34.7316C120.677 35.0622 120.563 35.3102 120.336 35.4756C120.129 35.6202 119.912 35.6926 119.685 35.6926C119.313 35.6512 118.848 35.6306 118.29 35.6306C117.732 35.6099 116.988 35.5996 116.058 35.5996C115.128 35.5996 113.898 35.5996 112.369 35.5996V49.4566C112.369 49.7252 112.276 49.9526 112.09 50.1386C111.925 50.3452 111.697 50.4486 111.408 50.4486Z" fill="white"/>
<path d="M144.361 50.8206C142.377 50.8206 140.662 50.4176 139.215 49.6116C137.789 48.8262 136.683 47.7102 135.898 46.2636C135.113 44.8169 134.72 43.1429 134.72 41.2416C134.72 39.3196 135.113 37.6352 135.898 36.1886C136.683 34.7419 137.799 33.6259 139.246 32.8406C140.693 32.0346 142.398 31.6316 144.361 31.6316C145.828 31.6316 147.11 31.8279 148.205 32.2206C149.3 32.6132 150.292 33.2436 151.181 34.1116C151.388 34.3182 151.491 34.5456 151.491 34.7936C151.491 35.0209 151.398 35.2482 151.212 35.4756C151.067 35.6822 150.861 35.7856 150.592 35.7856C150.323 35.7856 150.075 35.6926 149.848 35.5066C149.145 34.8246 148.319 34.3389 147.368 34.0496C146.417 33.7396 145.415 33.5846 144.361 33.5846C142.79 33.5846 141.426 33.8946 140.269 34.5146C139.132 35.1346 138.244 36.0232 137.603 37.1806C136.983 38.3172 136.673 39.6709 136.673 41.2416C136.673 42.7502 137.014 44.0832 137.696 45.2406C138.378 46.3979 139.298 47.2969 140.455 47.9376C141.633 48.5782 142.935 48.8986 144.361 48.8986C145.436 48.8986 146.521 48.7126 147.616 48.3406C148.711 47.9892 149.579 47.4416 150.22 46.6976C150.385 46.5116 150.613 46.4186 150.902 46.4186C151.15 46.4186 151.377 46.4909 151.584 46.6356C151.791 46.7802 151.894 46.9972 151.894 47.2866C151.894 47.5346 151.811 47.7722 151.646 47.9996C150.654 48.9916 149.559 49.7046 148.36 50.1386C147.161 50.5932 145.828 50.8206 144.361 50.8206Z" fill="white"/>
<path d="M175.392 50.8206C173.47 50.8206 171.796 50.4176 170.37 49.6116C168.965 48.8056 167.869 47.6792 167.084 46.2326C166.319 44.7652 165.937 43.0396 165.937 41.0556C165.937 39.0716 166.309 37.3459 167.053 35.8786C167.797 34.4112 168.872 33.2746 170.277 32.4686C171.682 31.6626 173.387 31.2596 175.392 31.2596C177.459 31.2596 179.195 31.6626 180.6 32.4686C182.005 33.2746 183.07 34.4112 183.793 35.8786C184.516 37.3252 184.878 39.0509 184.878 41.0556C184.878 44.2382 184.062 46.6562 182.429 48.3096C180.817 49.9836 178.471 50.8206 175.392 50.8206ZM175.392 48.8676C177.975 48.8676 179.877 48.2166 181.096 46.9146C182.315 45.6126 182.925 43.6596 182.925 41.0556C182.925 38.5962 182.295 36.6742 181.034 35.2896C179.773 33.9049 177.893 33.2126 175.392 33.2126C172.891 33.2126 171.011 33.9256 169.75 35.3516C168.489 36.7569 167.859 38.6582 167.859 41.0556C167.859 43.4529 168.51 45.3542 169.812 46.7596C171.135 48.1649 172.995 48.8676 175.392 48.8676Z" fill="white"/>
<path d="M214.917 50.2006C214.648 50.1799 214.411 50.0662 214.204 49.8596C213.997 49.6736 213.904 49.4359 213.925 49.1466C213.925 48.9606 213.925 48.5782 213.925 47.9996C213.946 47.4209 213.966 46.7699 213.987 46.0466C214.008 45.3026 214.018 44.5896 214.018 43.9076C214.039 43.2256 214.049 42.6986 214.049 42.3266H200.75C200.75 43.1326 200.75 43.8662 200.75 44.5276C200.771 45.1889 200.791 45.8812 200.812 46.6046C200.833 47.3072 200.853 48.1546 200.874 49.1466C200.915 49.4152 200.833 49.6529 200.626 49.8596C200.44 50.0662 200.202 50.1696 199.913 50.1696C199.582 50.2109 199.334 50.1179 199.169 49.8906C199.024 49.6839 198.931 49.4669 198.89 49.2396C198.869 48.8262 198.849 48.1649 198.828 47.2556C198.828 46.3462 198.818 45.3026 198.797 44.1246C198.797 42.9259 198.797 41.7272 198.797 40.5286C198.797 39.4746 198.797 38.4722 198.797 37.5216C198.818 36.5502 198.828 35.7029 198.828 34.9796C198.849 34.2562 198.869 33.7396 198.89 33.4296C198.952 32.8096 199.262 32.4996 199.82 32.4996C200.233 32.4996 200.512 32.6132 200.657 32.8406C200.822 33.0472 200.884 33.2849 200.843 33.5536C200.843 33.7396 200.833 34.1322 200.812 34.7316C200.812 35.3102 200.802 35.9716 200.781 36.7156C200.76 37.4596 200.74 38.1622 200.719 38.8236C200.719 39.4849 200.719 39.9912 200.719 40.3426H214.049C214.049 39.9912 214.039 39.4746 214.018 38.7926C214.018 38.1106 214.008 37.4079 213.987 36.6846C213.966 35.9406 213.946 35.2792 213.925 34.7006C213.925 34.1012 213.925 33.7189 213.925 33.5536C213.904 33.2022 214.008 32.9439 214.235 32.7786C214.462 32.5926 214.7 32.4996 214.948 32.4996C215.196 32.4996 215.413 32.5822 215.599 32.7476C215.785 32.9129 215.878 33.1402 215.878 33.4296C215.94 33.8636 215.981 34.4939 216.002 35.3206C216.043 36.1472 216.064 37.0876 216.064 38.1416C216.085 39.1749 216.095 40.2392 216.095 41.3346C216.095 42.4299 216.085 43.5046 216.064 44.5586C216.064 45.5919 216.043 46.5219 216.002 47.3486C215.981 48.1546 215.94 48.7849 215.878 49.2396C215.878 49.4876 215.785 49.7046 215.599 49.8906C215.413 50.0972 215.186 50.2006 214.917 50.2006Z" fill="white"/>
<path d="M2.31006 57.0996C2.74873 57.0996 3.11506 57.2466 3.40906 57.5406C3.70306 57.8346 3.85006 58.2009 3.85006 58.6396C3.85006 59.0782 3.70306 59.4446 3.40906 59.7386C3.11506 60.0326 2.74873 60.1796 2.31006 60.1796H1.05006V61.9996H0.560059V57.0996H2.31006ZM2.31006 59.7176C2.61339 59.7176 2.86306 59.6172 3.05906 59.4166C3.25973 59.2112 3.36006 58.9522 3.36006 58.6396C3.36006 58.3269 3.25973 58.0702 3.05906 57.8696C2.86306 57.6642 2.61339 57.5616 2.31006 57.5616H1.05006V59.7176H2.31006Z" fill="white"/>
<path d="M9.80569 58.4156C10.3237 58.4156 10.7414 58.5999 11.0587 58.9686C11.3807 59.3326 11.5417 59.7642 11.5417 60.2636C11.5417 60.3149 11.537 60.3872 11.5277 60.4806H8.45469C8.50136 60.8352 8.65069 61.1176 8.90269 61.3276C9.15936 61.5329 9.47436 61.6356 9.84769 61.6356C10.1137 61.6356 10.3424 61.5819 10.5337 61.4746C10.7297 61.3626 10.8767 61.2179 10.9747 61.0406L11.3807 61.2786C11.2267 61.5259 11.0167 61.7219 10.7507 61.8666C10.4847 62.0112 10.1814 62.0836 9.84069 62.0836C9.29002 62.0836 8.84202 61.9109 8.49669 61.5656C8.15136 61.2202 7.97869 60.7816 7.97869 60.2496C7.97869 59.7269 8.14902 59.2906 8.48969 58.9406C8.83036 58.5906 9.26902 58.4156 9.80569 58.4156ZM9.80569 58.8636C9.44169 58.8636 9.13602 58.9732 8.88869 59.1926C8.64602 59.4072 8.50136 59.6872 8.45469 60.0326H11.0657C11.019 59.6639 10.8767 59.3769 10.6387 59.1716C10.4007 58.9662 10.123 58.8636 9.80569 58.8636Z" fill="white"/>
<path d="M19.5566 58.4996V61.9996H19.0946V59.2066L17.8696 61.1946H17.8136L16.5886 59.2066V61.9996H16.1266V58.4996H16.6586L17.8416 60.4176L19.0246 58.4996H19.5566Z" fill="white"/>
<path d="M27.3188 61.5586C26.9641 61.9086 26.5301 62.0836 26.0168 62.0836C25.5034 62.0836 25.0671 61.9086 24.7078 61.5586C24.3531 61.2039 24.1758 60.7676 24.1758 60.2496C24.1758 59.7316 24.3531 59.2976 24.7078 58.9476C25.0671 58.5929 25.5034 58.4156 26.0168 58.4156C26.5301 58.4156 26.9641 58.5929 27.3188 58.9476C27.6781 59.2976 27.8578 59.7316 27.8578 60.2496C27.8578 60.7676 27.6781 61.2039 27.3188 61.5586ZM25.0368 61.2366C25.3028 61.5026 25.6294 61.6356 26.0168 61.6356C26.4041 61.6356 26.7308 61.5026 26.9968 61.2366C27.2628 60.9659 27.3958 60.6369 27.3958 60.2496C27.3958 59.8622 27.2628 59.5356 26.9968 59.2696C26.7308 58.9989 26.4041 58.8636 26.0168 58.8636C25.6294 58.8636 25.3028 58.9989 25.0368 59.2696C24.7708 59.5356 24.6378 59.8622 24.6378 60.2496C24.6378 60.6369 24.7708 60.9659 25.0368 61.2366Z" fill="white"/>
<path d="M34.9589 58.4996H35.4209V61.9996H34.9589V60.4736H32.9429V61.9996H32.4809V58.4996H32.9429V60.0256H34.9589V58.4996Z" fill="white"/>
<path d="M42.7679 58.4996V58.9476H41.5289V61.9996H41.0669V58.9476H39.8279V58.4996H42.7679Z" fill="white"/>
<path d="M49.6589 58.4996H50.1209V61.9996H49.6589V60.4736H47.6429V61.9996H47.1809V58.4996H47.6429V60.0256H49.6589V58.4996Z" fill="white"/>
<path d="M56.3689 59.8296C56.6955 59.8296 56.9709 59.9322 57.1949 60.1376C57.4235 60.3382 57.5379 60.5972 57.5379 60.9146C57.5379 61.2319 57.4235 61.4932 57.1949 61.6986C56.9709 61.8992 56.6955 61.9996 56.3689 61.9996H54.9479V58.4996H55.4099V59.8296H56.3689ZM58.0279 58.4996H58.4899V61.9996H58.0279V58.4996ZM56.3689 61.5516C56.5649 61.5516 56.7305 61.4932 56.8659 61.3766C57.0059 61.2599 57.0759 61.1059 57.0759 60.9146C57.0759 60.7232 57.0059 60.5692 56.8659 60.4526C56.7305 60.3359 56.5649 60.2776 56.3689 60.2776H55.4099V61.5516H56.3689Z" fill="white"/>
<path d="M64.9403 58.4156C65.4583 58.4156 65.8759 58.5999 66.1933 58.9686C66.5153 59.3326 66.6763 59.7642 66.6763 60.2636C66.6763 60.3149 66.6716 60.3872 66.6623 60.4806H63.5893C63.6359 60.8352 63.7853 61.1176 64.0373 61.3276C64.2939 61.5329 64.6089 61.6356 64.9823 61.6356C65.2483 61.6356 65.4769 61.5819 65.6683 61.4746C65.8643 61.3626 66.0113 61.2179 66.1093 61.0406L66.5153 61.2786C66.3613 61.5259 66.1513 61.7219 65.8853 61.8666C65.6193 62.0112 65.3159 62.0836 64.9753 62.0836C64.4246 62.0836 63.9766 61.9109 63.6313 61.5656C63.2859 61.2202 63.1133 60.7816 63.1133 60.2496C63.1133 59.7269 63.2836 59.2906 63.6243 58.9406C63.9649 58.5906 64.4036 58.4156 64.9403 58.4156ZM64.9403 58.8636C64.5763 58.8636 64.2706 58.9732 64.0233 59.1926C63.7806 59.4072 63.6359 59.6872 63.5893 60.0326H66.2003C66.1536 59.6639 66.0113 59.3769 65.7733 59.1716C65.5353 58.9662 65.2576 58.8636 64.9403 58.8636Z" fill="white"/>
<path d="M79.4091 58.4996H79.8012V61.9996H79.3391V59.3046L77.2532 61.9996H76.8612V58.4996H77.3232V61.1946L79.4091 58.4996Z" fill="white"/>
<path d="M93.1611 61.5586C92.8065 61.9086 92.3725 62.0836 91.8591 62.0836C91.3458 62.0836 90.9095 61.9086 90.5501 61.5586C90.1955 61.2039 90.0181 60.7676 90.0181 60.2496C90.0181 59.7316 90.1955 59.2976 90.5501 58.9476C90.9095 58.5929 91.3458 58.4156 91.8591 58.4156C92.3725 58.4156 92.8065 58.5929 93.1611 58.9476C93.5205 59.2976 93.7001 59.7316 93.7001 60.2496C93.7001 60.7676 93.5205 61.2039 93.1611 61.5586ZM90.8791 61.2366C91.1451 61.5026 91.4718 61.6356 91.8591 61.6356C92.2465 61.6356 92.5731 61.5026 92.8391 61.2366C93.1051 60.9659 93.2381 60.6369 93.2381 60.2496C93.2381 59.8622 93.1051 59.5356 92.8391 59.2696C92.5731 58.9989 92.2465 58.8636 91.8591 58.8636C91.4718 58.8636 91.1451 58.9989 90.8791 59.2696C90.6131 59.5356 90.4801 59.8622 90.4801 60.2496C90.4801 60.6369 90.6131 60.9659 90.8791 61.2366Z" fill="white"/>
<path d="M100.707 58.4996V58.9476H99.4675V61.9996H99.0055V58.9476H97.7665V58.4996H100.707Z" fill="white"/>
<path d="M107.848 61.5516H108.338V62.9376H107.876V61.9996H105.02V62.9376H104.558V61.5516H104.985C105.223 61.2389 105.342 60.7979 105.342 60.2286V58.4996H107.848V61.5516ZM105.545 61.5516H107.386V58.9476H105.804V60.2286C105.804 60.7652 105.717 61.2062 105.545 61.5516Z" fill="white"/>
<path d="M114.367 58.4156C114.885 58.4156 115.302 58.5999 115.62 58.9686C115.942 59.3326 116.103 59.7642 116.103 60.2636C116.103 60.3149 116.098 60.3872 116.089 60.4806H113.016C113.062 60.8352 113.212 61.1176 113.464 61.3276C113.72 61.5329 114.035 61.6356 114.409 61.6356C114.675 61.6356 114.903 61.5819 115.095 61.4746C115.291 61.3626 115.438 61.2179 115.536 61.0406L115.942 61.2786C115.788 61.5259 115.578 61.7219 115.312 61.8666C115.046 62.0112 114.742 62.0836 114.402 62.0836C113.851 62.0836 113.403 61.9109 113.058 61.5656C112.712 61.2202 112.54 60.7816 112.54 60.2496C112.54 59.7269 112.71 59.2906 113.051 58.9406C113.391 58.5906 113.83 58.4156 114.367 58.4156ZM114.367 58.8636C114.003 58.8636 113.697 58.9732 113.45 59.1926C113.207 59.4072 113.062 59.6872 113.016 60.0326H115.627C115.58 59.6639 115.438 59.3769 115.2 59.1716C114.962 58.9662 114.684 58.8636 114.367 58.8636Z" fill="white"/>
<path d="M123.421 58.4996V61.9996H122.959V58.9476H121.377V60.5086C121.377 61.0919 121.265 61.4932 121.041 61.7126C120.822 61.9319 120.518 62.0276 120.131 61.9996V61.5656C120.397 61.5936 120.593 61.5306 120.719 61.3766C120.85 61.2226 120.915 60.9332 120.915 60.5086V58.4996H123.421Z" fill="white"/>
<path d="M131.183 61.5586C130.828 61.9086 130.394 62.0836 129.881 62.0836C129.367 62.0836 128.931 61.9086 128.572 61.5586C128.217 61.2039 128.04 60.7676 128.04 60.2496C128.04 59.7316 128.217 59.2976 128.572 58.9476C128.931 58.5929 129.367 58.4156 129.881 58.4156C130.394 58.4156 130.828 58.5929 131.183 58.9476C131.542 59.2976 131.722 59.7316 131.722 60.2496C131.722 60.7676 131.542 61.2039 131.183 61.5586ZM128.901 61.2366C129.167 61.5026 129.493 61.6356 129.881 61.6356C130.268 61.6356 130.595 61.5026 130.861 61.2366C131.127 60.9659 131.26 60.6369 131.26 60.2496C131.26 59.8622 131.127 59.5356 130.861 59.2696C130.595 58.9989 130.268 58.8636 129.881 58.8636C129.493 58.8636 129.167 58.9989 128.901 59.2696C128.635 59.5356 128.502 59.8622 128.502 60.2496C128.502 60.6369 128.635 60.9659 128.901 61.2366Z" fill="white"/>
<path d="M138.544 58.4996H139.006V61.9996H138.544V60.6696C138.274 60.8096 137.94 60.8796 137.543 60.8796C137.086 60.8796 136.736 60.7746 136.493 60.5646C136.255 60.3499 136.136 60.0349 136.136 59.6196V58.4996H136.598V59.6196C136.598 59.9136 136.675 60.1259 136.829 60.2566C136.983 60.3826 137.217 60.4456 137.529 60.4456C137.893 60.4456 138.232 60.3779 138.544 60.2426V58.4996Z" fill="white"/>
<path d="M146.316 58.4996H146.778V61.9996H146.316V60.4736H144.3V61.9996H143.838V58.4996H144.3V60.0256H146.316V58.4996Z" fill="white"/>
<path d="M153.026 59.8296C153.353 59.8296 153.628 59.9322 153.852 60.1376C154.081 60.3382 154.195 60.5972 154.195 60.9146C154.195 61.2319 154.081 61.4932 153.852 61.6986C153.628 61.8992 153.353 61.9996 153.026 61.9996H151.605V58.4996H152.067V59.8296H153.026ZM154.685 58.4996H155.147V61.9996H154.685V58.4996ZM153.026 61.5516C153.222 61.5516 153.388 61.4932 153.523 61.3766C153.663 61.2599 153.733 61.1059 153.733 60.9146C153.733 60.7232 153.663 60.5692 153.523 60.4526C153.388 60.3359 153.222 60.2776 153.026 60.2776H152.067V61.5516H153.026Z" fill="white"/>
<path d="M161.598 58.4156C162.116 58.4156 162.533 58.5999 162.851 58.9686C163.173 59.3326 163.334 59.7642 163.334 60.2636C163.334 60.3149 163.329 60.3872 163.32 60.4806H160.247C160.293 60.8352 160.443 61.1176 160.695 61.3276C160.951 61.5329 161.266 61.6356 161.64 61.6356C161.906 61.6356 162.134 61.5819 162.326 61.4746C162.522 61.3626 162.669 61.2179 162.767 61.0406L163.173 61.2786C163.019 61.5259 162.809 61.7219 162.543 61.8666C162.277 62.0112 161.973 62.0836 161.633 62.0836C161.082 62.0836 160.634 61.9109 160.289 61.5656C159.943 61.2202 159.771 60.7816 159.771 60.2496C159.771 59.7269 159.941 59.2906 160.282 58.9406C160.622 58.5906 161.061 58.4156 161.598 58.4156ZM161.598 58.8636C161.234 58.8636 160.928 58.9732 160.681 59.1926C160.438 59.4072 160.293 59.6872 160.247 60.0326H162.858C162.811 59.6639 162.669 59.3769 162.431 59.1716C162.193 58.9662 161.915 58.8636 161.598 58.8636Z" fill="white"/>
<path d="M175.395 58.4156C175.894 58.4156 176.319 58.5929 176.669 58.9476C177.023 59.3022 177.201 59.7362 177.201 60.2496C177.201 60.7629 177.023 61.1969 176.669 61.5516C176.319 61.9062 175.894 62.0836 175.395 62.0836C174.774 62.0836 174.303 61.8269 173.981 61.3136V63.3996H173.519V58.4996H173.981V59.1856C174.303 58.6722 174.774 58.4156 175.395 58.4156ZM174.38 61.2366C174.646 61.5026 174.972 61.6356 175.36 61.6356C175.747 61.6356 176.074 61.5026 176.34 61.2366C176.606 60.9659 176.739 60.6369 176.739 60.2496C176.739 59.8622 176.606 59.5356 176.34 59.2696C176.074 58.9989 175.747 58.8636 175.36 58.8636C174.972 58.8636 174.646 58.9989 174.38 59.2696C174.114 59.5356 173.981 59.8622 173.981 60.2496C173.981 60.6369 174.114 60.9659 174.38 61.2366Z" fill="white"/>
<path d="M184.829 58.4996H185.291V61.9996H184.829V61.3136C184.507 61.8269 184.035 62.0836 183.415 62.0836C182.915 62.0836 182.488 61.9062 182.134 61.5516C181.784 61.1969 181.609 60.7629 181.609 60.2496C181.609 59.7362 181.784 59.3022 182.134 58.9476C182.488 58.5929 182.915 58.4156 183.415 58.4156C184.035 58.4156 184.507 58.6722 184.829 59.1856V58.4996ZM182.47 61.2366C182.736 61.5026 183.062 61.6356 183.45 61.6356C183.837 61.6356 184.164 61.5026 184.43 61.2366C184.696 60.9659 184.829 60.6369 184.829 60.2496C184.829 59.8622 184.696 59.5356 184.43 59.2696C184.164 58.9989 183.837 58.8636 183.45 58.8636C183.062 58.8636 182.736 58.9989 182.47 59.2696C182.204 59.5356 182.071 59.8622 182.071 60.2496C182.071 60.6369 182.204 60.9659 182.47 61.2366Z" fill="white"/>
<path d="M191.673 62.0836C191.169 62.0836 190.749 61.9179 190.413 61.5866C190.077 61.2506 189.909 60.8166 189.909 60.2846C189.909 59.6872 189.998 59.2299 190.175 58.9126C190.352 58.5906 190.712 58.2989 191.253 58.0376C191.356 57.9862 191.491 57.9256 191.659 57.8556C191.832 57.7856 191.96 57.7296 192.044 57.6876C192.133 57.6456 192.228 57.5919 192.331 57.5266C192.434 57.4566 192.511 57.3796 192.562 57.2956C192.613 57.2116 192.646 57.1112 192.66 56.9946L193.024 57.2046C193.005 57.3166 192.968 57.4216 192.912 57.5196C192.856 57.6176 192.798 57.6969 192.737 57.7576C192.681 57.8182 192.59 57.8859 192.464 57.9606C192.343 58.0306 192.247 58.0819 192.177 58.1146C192.112 58.1426 191.995 58.1916 191.827 58.2616C191.664 58.3316 191.554 58.3782 191.498 58.4016C191.171 58.5416 190.931 58.6886 190.777 58.8426C190.623 58.9919 190.513 59.1879 190.448 59.4306C190.607 59.2206 190.807 59.0666 191.05 58.9686C191.297 58.8659 191.538 58.8146 191.771 58.8146C192.238 58.8146 192.623 58.9686 192.926 59.2766C193.234 59.5799 193.388 59.9696 193.388 60.4456C193.388 60.9169 193.225 61.3089 192.898 61.6216C192.576 61.9296 192.168 62.0836 191.673 62.0836ZM191.673 61.6216C192.037 61.6216 192.336 61.5119 192.569 61.2926C192.807 61.0686 192.926 60.7862 192.926 60.4456C192.926 60.1002 192.814 59.8179 192.59 59.5986C192.371 59.3746 192.077 59.2626 191.708 59.2626C191.377 59.2626 191.076 59.3676 190.805 59.5776C190.534 59.7829 190.399 60.0582 190.399 60.4036C190.399 60.7582 190.52 61.0499 190.763 61.2786C191.01 61.5072 191.314 61.6216 191.673 61.6216Z" fill="white"/>
<path d="M200.874 61.5586C200.519 61.9086 200.085 62.0836 199.572 62.0836C199.058 62.0836 198.622 61.9086 198.263 61.5586C197.908 61.2039 197.731 60.7676 197.731 60.2496C197.731 59.7316 197.908 59.2976 198.263 58.9476C198.622 58.5929 199.058 58.4156 199.572 58.4156C200.085 58.4156 200.519 58.5929 200.874 58.9476C201.233 59.2976 201.413 59.7316 201.413 60.2496C201.413 60.7676 201.233 61.2039 200.874 61.5586ZM198.592 61.2366C198.858 61.5026 199.184 61.6356 199.572 61.6356C199.959 61.6356 200.286 61.5026 200.552 61.2366C200.818 60.9659 200.951 60.6369 200.951 60.2496C200.951 59.8622 200.818 59.5356 200.552 59.2696C200.286 58.9989 199.959 58.8636 199.572 58.8636C199.184 58.8636 198.858 58.9989 198.592 59.2696C198.326 59.5356 198.193 59.8622 198.193 60.2496C198.193 60.6369 198.326 60.9659 198.592 61.2366Z" fill="white"/>
<path d="M208.419 58.4996V58.9476H207.18V61.9996H206.718V58.9476H205.479V58.4996H208.419Z" fill="white"/>
<path d="M214.253 59.8296C214.58 59.8296 214.855 59.9322 215.079 60.1376C215.308 60.3382 215.422 60.5972 215.422 60.9146C215.422 61.2319 215.308 61.4932 215.079 61.6986C214.855 61.8992 214.58 61.9996 214.253 61.9996H212.832V58.4996H213.294V59.8296H214.253ZM215.912 58.4996H216.374V61.9996H215.912V58.4996ZM214.253 61.5516C214.449 61.5516 214.615 61.4932 214.75 61.3766C214.89 61.2599 214.96 61.1059 214.96 60.9146C214.96 60.7232 214.89 60.5692 214.75 60.4526C214.615 60.3359 214.449 60.2776 214.253 60.2776H213.294V61.5516H214.253Z" fill="white"/>
</svg>
