<svg width="286" height="119" viewBox="0 0 286 119" fill="none" xmlns="http://www.w3.org/2000/svg">
<path d="M275.502 0.941593C275.299 1.46771 273.575 5.86124 271.658 10.707C269.75 15.5528 268.064 19.8448 267.925 20.2417C267.483 21.4601 266.866 21.3309 272.838 21.3032L278.018 21.2755L278.765 19.1987C279.179 18.0542 279.585 16.9743 279.668 16.7989C279.751 16.6235 280.11 15.7282 280.46 14.8144C282.249 10.1532 285.189 2.55686 285.364 2.15997C285.677 1.44925 286 0.452398 286 0.212416V0.00012207H280.94H275.88L275.502 0.941593Z" fill="var(--secondary-color)"/>
<path d="M214.661 16.1989V21.5062H227.74C238.109 21.5062 240.846 21.5339 240.902 21.617C240.938 21.6816 240.994 37.8527 241.021 57.5498L241.068 93.3625L246.819 93.3902L252.57 93.4087L252.506 67.4998C252.478 53.2393 252.423 37.022 252.395 31.447L252.331 21.3216H255.529C258.432 21.3216 258.718 21.3124 258.718 21.1647C258.718 21.0816 259.022 20.2417 259.4 19.3002C261.492 14.0483 262.681 11.0116 262.681 10.9562C262.681 10.9193 251.879 10.8916 238.671 10.8916H214.661V16.1989Z" fill="black"/>
<path d="M0.14747 11.3716C0.0184338 11.5562 0 12.193 0 16.4389V21.3031L0.211988 21.3585C1.06916 21.5893 11.6962 21.6354 25.5308 21.4693L26.1299 21.4601L26.176 57.4113L26.222 93.3625L31.5863 93.3902L36.9505 93.4087L37.0427 93.0672C37.1164 92.8272 37.1441 81.5572 37.1441 57.1067V21.5062H50.0293C59.9282 21.5062 62.9421 21.4785 63.0251 21.3954C63.1818 21.2385 63.1818 11.4362 63.0251 11.2793C62.9421 11.1962 55.8359 11.1685 31.6047 11.1685H0.285724L0.14747 11.3716Z" fill="black"/>
<path d="M77.5513 11.3623C77.3762 11.5562 77.3762 12.3869 77.3485 52.3901L77.3301 93.2241L77.5697 93.3164C77.7264 93.381 79.6527 93.3995 82.8694 93.3902C87.2567 93.3625 87.9387 93.3441 88.0678 93.2241C88.1876 93.0949 88.206 91.1473 88.2429 75.9361C88.2705 62.8017 88.3074 58.7497 88.3903 58.6481C88.4917 58.5374 89.8097 58.5189 97.7824 58.5189C105.073 58.5189 107.101 58.5466 107.211 58.6297C107.396 58.7774 108.502 60.7434 118.576 78.8436L126.677 93.4087H133.157C137.019 93.4087 139.636 93.3718 139.636 93.3256C139.636 93.2425 128.567 74.1455 125.424 68.8105C124.594 67.389 123.304 65.183 122.567 63.9185C121.829 62.6448 120.843 60.9741 120.373 60.1896C119.912 59.405 119.507 58.6297 119.479 58.4635C119.433 58.1774 119.442 58.1589 119.783 58.1036C121.525 57.8267 123.11 57.2913 125.138 56.3037C130.429 53.7377 134.539 49.2704 136.318 44.1661C137.009 42.1724 137.498 40.0402 137.655 38.3511C137.682 37.9912 137.793 37.1605 137.894 36.5051C137.996 35.8406 138.106 34.7053 138.134 33.9668L138.18 32.6285L137.516 29.121C136.742 25.0413 136.521 24.3029 135.443 22.3277C134.549 20.6755 134.088 19.9556 133.452 19.2356C132.097 17.6849 129.212 15.5805 126.65 14.2698C125.378 13.6145 125.018 13.476 122.852 12.7745C120.852 12.1284 119.175 11.75 116.76 11.3992L115.165 11.1685H96.4459H77.7264L77.5513 11.3623ZM112.446 21.2293C115.682 21.3678 115.7 21.377 118.99 22.4846C120.585 23.0292 122.069 23.5645 122.272 23.6845C122.871 24.026 124.069 25.2075 124.603 25.9828C125.396 27.1366 125.839 28.1888 126.244 29.9056L126.594 31.4286V34.4745C126.594 36.9297 126.557 37.6866 126.438 38.3511C125.811 41.7109 123.571 44.923 120.935 46.2336C120.484 46.4644 119.193 46.889 117.285 47.4428L114.336 48.292L112.216 48.3658C111.055 48.412 105.211 48.4489 99.2478 48.4581C88.5747 48.4581 88.3996 48.4581 88.2982 48.2735C88.1876 48.0612 88.2152 21.377 88.3258 21.257C88.5194 21.0724 108.124 21.0447 112.446 21.2293Z" fill="black"/>
<path d="M160.3 43.9076L160.327 76.656H165.212H170.097L170.143 68.635L170.189 60.6141L170.447 60.4203L170.706 60.2264L185.148 60.2541C198.845 60.2818 202.946 60.2264 203.158 60.0141C203.195 59.9772 203.232 57.9927 203.25 55.6114C203.26 53.2208 203.296 51.1625 203.333 51.0332C203.379 50.8486 203.333 50.664 203.131 50.3225L202.872 49.861L192.199 49.7964C186.328 49.7595 179.047 49.7503 176.024 49.7872C172.06 49.8426 170.475 49.8241 170.337 49.7503L170.143 49.6487V35.8128V21.9769L170.42 21.8292C170.678 21.7 172.374 21.6815 187.407 21.6908C199.554 21.7 204.642 21.6631 206.071 21.5892L208.025 21.4692L208.006 16.3927L207.979 11.3161L207.748 11.2515C207.619 11.2146 196.891 11.1869 183.895 11.1777L160.281 11.1684L160.3 43.9076Z" fill="black"/>
<path d="M160.3 88.9413L160.327 93.3625H184.061H207.794L207.822 89.6244C207.85 85.6554 207.831 85.2216 207.582 84.917L207.426 84.7324L187.056 84.6955C175.858 84.6678 165.249 84.6216 163.48 84.594L160.281 84.5293L160.3 88.9413Z" fill="var(--secondary-color)"/>
</svg>
