<svg width="216" height="64" viewBox="0 0 216 64" fill="none" xmlns="http://www.w3.org/2000/svg">
<path d="M2.95985 52.2836C2.27985 52.4196 1.73585 52.2382 1.32785 51.7396C0.965181 51.2409 0.738514 50.7422 0.647848 50.2436C0.511848 48.7476 0.443848 47.1382 0.443848 45.4156C0.443848 42.2876 0.647848 39.0236 1.05585 35.6236C1.50918 32.1782 2.14385 28.8236 2.95985 25.5596C3.77585 22.2502 4.75051 19.2582 5.88385 16.5836C8.01451 11.5969 10.8705 7.60757 14.4518 4.61557C18.0332 1.57824 22.3398 0.0595703 27.3718 0.0595703C30.7718 0.0595703 33.8998 0.898237 36.7558 2.57557C39.6119 4.20757 42.1052 6.3609 44.2359 9.03557C46.3665 11.7102 48.0212 14.6342 49.1999 17.8076C50.2879 20.3462 51.2398 23.1796 52.0559 26.3076C52.8719 29.3902 53.5065 32.5409 53.9599 35.7596C54.4132 38.9782 54.6399 42.0836 54.6399 45.0756C54.6399 45.9822 54.6172 46.8889 54.5718 47.7956C54.5265 48.6569 54.4585 49.4956 54.3678 50.3116C54.3225 50.9009 54.0959 51.3769 53.6879 51.7396C53.2799 52.1476 52.7132 52.3062 51.9879 52.2156C50.5825 52.0796 49.9478 51.2862 50.0839 49.8356C50.2198 48.3849 50.2878 46.8889 50.2878 45.3476C50.2878 42.3556 50.0612 39.2502 49.6078 36.0316C49.1545 32.7676 48.5199 29.6169 47.7038 26.5796C46.8878 23.4969 45.8905 20.7542 44.7118 18.3516C43.4879 15.6769 42.0145 13.2969 40.2918 11.2116C38.6145 9.12624 36.6878 7.47157 34.5118 6.24757C32.3812 5.02357 30.0012 4.41157 27.3718 4.41157C23.2465 4.41157 19.8012 5.63557 17.0358 8.08357C14.3158 10.4862 12.0492 13.6142 10.2358 17.4676C9.51051 19.0089 8.85318 20.6636 8.26385 22.4316C7.71985 24.1996 7.22118 26.0809 6.76785 28.0756H44.7118C45.3465 28.0756 45.8678 28.2796 46.2758 28.6876C46.6838 29.0956 46.8878 29.6169 46.8878 30.2516C46.8878 30.8862 46.6838 31.4076 46.2758 31.8156C45.8678 32.2236 45.3465 32.4276 44.7118 32.4276H5.95185C5.58918 34.5129 5.31718 36.7342 5.13585 39.0916C4.95451 41.4489 4.86385 43.7382 4.86385 45.9596C4.86385 46.6849 4.86385 47.3649 4.86385 47.9996C4.86385 48.6796 4.88651 49.3369 4.93185 49.9716C5.02251 50.5609 4.86385 51.0596 4.45585 51.4676C4.09318 51.9209 3.59451 52.1929 2.95985 52.2836Z" fill="#0F111A"/>
<path d="M72.9659 50.8826C72.4285 50.8826 72.0875 50.5726 71.9428 49.9526C71.9015 49.1672 71.8602 48.2062 71.8188 47.0696C71.7775 45.9122 71.7465 44.6826 71.7258 43.3806C71.7052 42.0579 71.6948 40.7662 71.6948 39.5056C71.6948 38.0796 71.7155 36.7672 71.7569 35.5686C71.7982 34.3699 71.8602 33.4606 71.9428 32.8406C72.0255 32.5719 72.1495 32.3756 72.3148 32.2516C72.5008 32.1069 72.6869 32.0242 72.8728 32.0036C73.2655 31.9622 73.6685 31.9312 74.0818 31.9106C74.5158 31.8899 74.9602 31.8796 75.4148 31.8796C76.8202 31.8796 78.2565 31.9932 79.7238 32.2206C81.2118 32.4272 82.4622 32.7682 83.4748 33.2436C84.9422 33.9049 86.0892 34.7626 86.9158 35.8166C87.7632 36.8499 88.1869 38.1312 88.1869 39.6606C88.1869 41.0246 87.8458 42.1612 87.1638 43.0706C86.5025 43.9592 85.5932 44.6619 84.4359 45.1786C83.2992 45.6952 81.9972 46.0776 80.5298 46.3256C79.5172 46.4909 78.3908 46.6046 77.1508 46.6666C75.9315 46.7286 74.8052 46.7492 73.7719 46.7286C73.7719 46.7286 73.7719 46.8836 73.7719 47.1936C73.7925 47.5036 73.8132 47.8652 73.8338 48.2786C73.8545 48.6919 73.8752 49.0536 73.8959 49.3636C73.9165 49.6736 73.9268 49.8286 73.9268 49.8286C73.9888 50.4692 73.6685 50.8206 72.9659 50.8826ZM73.7409 44.7446C74.8982 44.7446 75.9935 44.7136 77.0268 44.6516C78.0602 44.5896 79.1142 44.4862 80.1889 44.3416C81.9868 44.0522 83.4335 43.5562 84.5288 42.8536C85.6242 42.1509 86.1719 41.0866 86.1719 39.6606C86.1719 38.5032 85.8412 37.5629 85.1798 36.8396C84.5392 36.0956 83.6815 35.4962 82.6068 35.0416C81.5735 34.6282 80.4678 34.3389 79.2898 34.1736C78.1118 33.9876 76.9028 33.8946 75.6628 33.8946C75.3529 33.8946 75.0428 33.9049 74.7328 33.9256C74.4435 33.9256 74.1438 33.9359 73.8338 33.9566C73.8132 34.3699 73.7925 34.9486 73.7719 35.6926C73.7719 36.4366 73.7615 37.2529 73.7409 38.1416C73.7409 39.0096 73.7305 39.8776 73.7098 40.7456C73.7098 41.6136 73.7098 42.3782 73.7098 43.0396C73.7098 43.4322 73.7098 43.7836 73.7098 44.0936C73.7305 44.3829 73.7409 44.5999 73.7409 44.7446Z" fill="#0F111A"/>
<path d="M110.848 50.4486C110.559 50.4486 110.321 50.3556 110.135 50.1696C109.949 49.9836 109.856 49.7459 109.856 49.4566V35.5686C109.443 35.5686 108.874 35.5789 108.151 35.5996C107.428 35.5996 106.673 35.6099 105.888 35.6306C105.103 35.6512 104.4 35.6719 103.78 35.6926C103.16 35.6926 102.747 35.7029 102.54 35.7236C102.271 35.7236 102.044 35.6409 101.858 35.4756C101.693 35.2896 101.589 35.0622 101.548 34.7936C101.548 34.1736 101.858 33.8326 102.478 33.7706C102.912 33.7292 103.584 33.7086 104.493 33.7086C105.402 33.6879 106.446 33.6776 107.624 33.6776C108.823 33.6569 110.032 33.6466 111.251 33.6466C112.863 33.6466 114.392 33.6569 115.839 33.6776C117.286 33.6776 118.391 33.6879 119.156 33.7086C119.445 33.7086 119.683 33.8119 119.869 34.0186C120.076 34.2046 120.158 34.4422 120.117 34.7316C120.117 35.0622 120.003 35.3102 119.776 35.4756C119.569 35.6202 119.352 35.6926 119.125 35.6926C118.753 35.6512 118.288 35.6306 117.73 35.6306C117.172 35.6099 116.428 35.5996 115.498 35.5996C114.568 35.5996 113.338 35.5996 111.809 35.5996V49.4566C111.809 49.7252 111.716 49.9526 111.53 50.1386C111.365 50.3452 111.137 50.4486 110.848 50.4486Z" fill="#0F111A"/>
<path d="M143.801 50.8206C141.817 50.8206 140.102 50.4176 138.655 49.6116C137.229 48.8262 136.123 47.7102 135.338 46.2636C134.553 44.8169 134.16 43.1429 134.16 41.2416C134.16 39.3196 134.553 37.6352 135.338 36.1886C136.123 34.7419 137.239 33.6259 138.686 32.8406C140.133 32.0346 141.838 31.6316 143.801 31.6316C145.268 31.6316 146.549 31.8279 147.645 32.2206C148.74 32.6132 149.732 33.2436 150.621 34.1116C150.828 34.3182 150.931 34.5456 150.931 34.7936C150.931 35.0209 150.838 35.2482 150.652 35.4756C150.507 35.6822 150.301 35.7856 150.032 35.7856C149.763 35.7856 149.515 35.6926 149.288 35.5066C148.585 34.8246 147.759 34.3389 146.808 34.0496C145.857 33.7396 144.855 33.5846 143.801 33.5846C142.23 33.5846 140.866 33.8946 139.709 34.5146C138.572 35.1346 137.684 36.0232 137.043 37.1806C136.423 38.3172 136.113 39.6709 136.113 41.2416C136.113 42.7502 136.454 44.0832 137.136 45.2406C137.818 46.3979 138.738 47.2969 139.895 47.9376C141.073 48.5782 142.375 48.8986 143.801 48.8986C144.876 48.8986 145.961 48.7126 147.056 48.3406C148.151 47.9892 149.019 47.4416 149.66 46.6976C149.825 46.5116 150.053 46.4186 150.342 46.4186C150.59 46.4186 150.817 46.4909 151.024 46.6356C151.231 46.7802 151.334 46.9972 151.334 47.2866C151.334 47.5346 151.251 47.7722 151.086 47.9996C150.094 48.9916 148.999 49.7046 147.8 50.1386C146.601 50.5932 145.268 50.8206 143.801 50.8206Z" fill="#0F111A"/>
<path d="M174.832 50.8206C172.91 50.8206 171.236 50.4176 169.81 49.6116C168.405 48.8056 167.309 47.6792 166.524 46.2326C165.759 44.7652 165.377 43.0396 165.377 41.0556C165.377 39.0716 165.749 37.3459 166.493 35.8786C167.237 34.4112 168.312 33.2746 169.717 32.4686C171.122 31.6626 172.827 31.2596 174.832 31.2596C176.899 31.2596 178.635 31.6626 180.04 32.4686C181.445 33.2746 182.51 34.4112 183.233 35.8786C183.956 37.3252 184.318 39.0509 184.318 41.0556C184.318 44.2382 183.502 46.6562 181.869 48.3096C180.257 49.9836 177.911 50.8206 174.832 50.8206ZM174.832 48.8676C177.415 48.8676 179.317 48.2166 180.536 46.9146C181.755 45.6126 182.365 43.6596 182.365 41.0556C182.365 38.5962 181.735 36.6742 180.474 35.2896C179.213 33.9049 177.333 33.2126 174.832 33.2126C172.331 33.2126 170.451 33.9256 169.19 35.3516C167.929 36.7569 167.299 38.6582 167.299 41.0556C167.299 43.4529 167.95 45.3542 169.252 46.7596C170.575 48.1649 172.435 48.8676 174.832 48.8676Z" fill="#0F111A"/>
<path d="M214.357 50.2006C214.088 50.1799 213.851 50.0662 213.644 49.8596C213.437 49.6736 213.344 49.4359 213.365 49.1466C213.365 48.9606 213.365 48.5782 213.365 47.9996C213.385 47.4209 213.406 46.7699 213.427 46.0466C213.448 45.3026 213.458 44.5896 213.458 43.9076C213.479 43.2256 213.489 42.6986 213.489 42.3266H200.19C200.19 43.1326 200.19 43.8662 200.19 44.5276C200.211 45.1889 200.231 45.8812 200.252 46.6046C200.273 47.3072 200.293 48.1546 200.314 49.1466C200.355 49.4152 200.273 49.6529 200.066 49.8596C199.88 50.0662 199.642 50.1696 199.353 50.1696C199.022 50.2109 198.774 50.1179 198.609 49.8906C198.464 49.6839 198.371 49.4669 198.33 49.2396C198.309 48.8262 198.288 48.1649 198.268 47.2556C198.268 46.3462 198.258 45.3026 198.237 44.1246C198.237 42.9259 198.237 41.7272 198.237 40.5286C198.237 39.4746 198.237 38.4722 198.237 37.5216C198.258 36.5502 198.268 35.7029 198.268 34.9796C198.288 34.2562 198.309 33.7396 198.33 33.4296C198.392 32.8096 198.702 32.4996 199.26 32.4996C199.673 32.4996 199.952 32.6132 200.097 32.8406C200.262 33.0472 200.324 33.2849 200.283 33.5536C200.283 33.7396 200.273 34.1322 200.252 34.7316C200.252 35.3102 200.242 35.9716 200.221 36.7156C200.2 37.4596 200.18 38.1622 200.159 38.8236C200.159 39.4849 200.159 39.9912 200.159 40.3426H213.489C213.489 39.9912 213.479 39.4746 213.458 38.7926C213.458 38.1106 213.448 37.4079 213.427 36.6846C213.406 35.9406 213.385 35.2792 213.365 34.7006C213.365 34.1012 213.365 33.7189 213.365 33.5536C213.344 33.2022 213.448 32.9439 213.675 32.7786C213.902 32.5926 214.14 32.4996 214.388 32.4996C214.636 32.4996 214.853 32.5822 215.039 32.7476C215.225 32.9129 215.318 33.1402 215.318 33.4296C215.38 33.8636 215.421 34.4939 215.442 35.3206C215.483 36.1472 215.504 37.0876 215.504 38.1416C215.525 39.1749 215.535 40.2392 215.535 41.3346C215.535 42.4299 215.525 43.5046 215.504 44.5586C215.504 45.5919 215.483 46.5219 215.442 47.3486C215.421 48.1546 215.38 48.7849 215.318 49.2396C215.318 49.4876 215.225 49.7046 215.039 49.8906C214.853 50.0972 214.626 50.2006 214.357 50.2006Z" fill="#0F111A"/>
<path d="M1.75 57.0996C2.18867 57.0996 2.555 57.2466 2.849 57.5406C3.143 57.8346 3.29 58.201 3.29 58.6396C3.29 59.0783 3.143 59.4446 2.849 59.7386C2.555 60.0326 2.18867 60.1796 1.75 60.1796H0.49V61.9996H0V57.0996H1.75ZM1.75 59.7176C2.05333 59.7176 2.303 59.6173 2.499 59.4166C2.69967 59.2113 2.8 58.9523 2.8 58.6396C2.8 58.327 2.69967 58.0703 2.499 57.8696C2.303 57.6643 2.05333 57.5616 1.75 57.5616H0.49V59.7176H1.75Z" fill="#0F111A"/>
<path d="M9.24563 58.4156C9.76363 58.4156 10.1813 58.6 10.4986 58.9686C10.8206 59.3326 10.9816 59.7643 10.9816 60.2636C10.9816 60.315 10.977 60.3873 10.9676 60.4806H7.89463C7.9413 60.8353 8.09063 61.1176 8.34263 61.3276C8.5993 61.533 8.9143 61.6356 9.28763 61.6356C9.55363 61.6356 9.7823 61.582 9.97363 61.4746C10.1696 61.3626 10.3166 61.218 10.4146 61.0406L10.8206 61.2786C10.6666 61.526 10.4566 61.722 10.1906 61.8666C9.92463 62.0113 9.6213 62.0836 9.28063 62.0836C8.72997 62.0836 8.28197 61.911 7.93663 61.5656C7.5913 61.2203 7.41863 60.7816 7.41863 60.2496C7.41863 59.727 7.58897 59.2906 7.92963 58.9406C8.2703 58.5906 8.70897 58.4156 9.24563 58.4156ZM9.24563 58.8636C8.88163 58.8636 8.57597 58.9733 8.32863 59.1926C8.08597 59.4073 7.9413 59.6873 7.89463 60.0326H10.5056C10.459 59.664 10.3166 59.377 10.0786 59.1716C9.84063 58.9663 9.56297 58.8636 9.24563 58.8636Z" fill="#0F111A"/>
<path d="M18.9965 58.4996V61.9996H18.5345V59.2066L17.3095 61.1946H17.2535L16.0285 59.2066V61.9996H15.5665V58.4996H16.0985L17.2815 60.4176L18.4645 58.4996H18.9965Z" fill="#0F111A"/>
<path d="M26.7587 61.5586C26.404 61.9086 25.97 62.0836 25.4567 62.0836C24.9434 62.0836 24.507 61.9086 24.1477 61.5586C23.793 61.204 23.6157 60.7676 23.6157 60.2496C23.6157 59.7316 23.793 59.2976 24.1477 58.9476C24.507 58.593 24.9434 58.4156 25.4567 58.4156C25.97 58.4156 26.404 58.593 26.7587 58.9476C27.118 59.2976 27.2977 59.7316 27.2977 60.2496C27.2977 60.7676 27.118 61.204 26.7587 61.5586ZM24.4767 61.2366C24.7427 61.5026 25.0694 61.6356 25.4567 61.6356C25.844 61.6356 26.1707 61.5026 26.4367 61.2366C26.7027 60.966 26.8357 60.637 26.8357 60.2496C26.8357 59.8623 26.7027 59.5356 26.4367 59.2696C26.1707 58.999 25.844 58.8636 25.4567 58.8636C25.0694 58.8636 24.7427 58.999 24.4767 59.2696C24.2107 59.5356 24.0777 59.8623 24.0777 60.2496C24.0777 60.637 24.2107 60.966 24.4767 61.2366Z" fill="#0F111A"/>
<path d="M34.3988 58.4996H34.8608V61.9996H34.3988V60.4736H32.3828V61.9996H31.9208V58.4996H32.3828V60.0256H34.3988V58.4996Z" fill="#0F111A"/>
<path d="M42.2078 58.4996V58.9476H40.9688V61.9996H40.5068V58.9476H39.2678V58.4996H42.2078Z" fill="#0F111A"/>
<path d="M49.0988 58.4996H49.5608V61.9996H49.0988V60.4736H47.0828V61.9996H46.6208V58.4996H47.0828V60.0256H49.0988V58.4996Z" fill="#0F111A"/>
<path d="M55.8088 59.8296C56.1355 59.8296 56.4108 59.9323 56.6348 60.1376C56.8635 60.3383 56.9778 60.5973 56.9778 60.9146C56.9778 61.232 56.8635 61.4933 56.6348 61.6986C56.4108 61.8993 56.1355 61.9996 55.8088 61.9996H54.3878V58.4996H54.8498V59.8296H55.8088ZM57.4678 58.4996H57.9298V61.9996H57.4678V58.4996ZM55.8088 61.5516C56.0048 61.5516 56.1705 61.4933 56.3058 61.3766C56.4458 61.26 56.5158 61.106 56.5158 60.9146C56.5158 60.7233 56.4458 60.5693 56.3058 60.4526C56.1705 60.336 56.0048 60.2776 55.8088 60.2776H54.8498V61.5516H55.8088Z" fill="#0F111A"/>
<path d="M64.3802 58.4156C64.8982 58.4156 65.3159 58.6 65.6332 58.9686C65.9552 59.3326 66.1162 59.7643 66.1162 60.2636C66.1162 60.315 66.1115 60.3873 66.1022 60.4806H63.0292C63.0759 60.8353 63.2252 61.1176 63.4772 61.3276C63.7339 61.533 64.0489 61.6356 64.4222 61.6356C64.6882 61.6356 64.9169 61.582 65.1082 61.4746C65.3042 61.3626 65.4512 61.218 65.5492 61.0406L65.9552 61.2786C65.8012 61.526 65.5912 61.722 65.3252 61.8666C65.0592 62.0113 64.7559 62.0836 64.4152 62.0836C63.8645 62.0836 63.4165 61.911 63.0712 61.5656C62.7259 61.2203 62.5532 60.7816 62.5532 60.2496C62.5532 59.727 62.7235 59.2906 63.0642 58.9406C63.4049 58.5906 63.8435 58.4156 64.3802 58.4156ZM64.3802 58.8636C64.0162 58.8636 63.7105 58.9733 63.4632 59.1926C63.2205 59.4073 63.0759 59.6873 63.0292 60.0326H65.6402C65.5935 59.664 65.4512 59.377 65.2132 59.1716C64.9752 58.9663 64.6975 58.8636 64.3802 58.8636Z" fill="#0F111A"/>
<path d="M78.8491 58.4996H79.2411V61.9996H78.7791V59.3046L76.6931 61.9996H76.3011V58.4996H76.7631V61.1946L78.8491 58.4996Z" fill="#0F111A"/>
<path d="M92.6011 61.5586C92.2464 61.9086 91.8124 62.0836 91.2991 62.0836C90.7857 62.0836 90.3494 61.9086 89.9901 61.5586C89.6354 61.204 89.4581 60.7676 89.4581 60.2496C89.4581 59.7316 89.6354 59.2976 89.9901 58.9476C90.3494 58.593 90.7857 58.4156 91.2991 58.4156C91.8124 58.4156 92.2464 58.593 92.6011 58.9476C92.9604 59.2976 93.1401 59.7316 93.1401 60.2496C93.1401 60.7676 92.9604 61.204 92.6011 61.5586ZM90.3191 61.2366C90.5851 61.5026 90.9117 61.6356 91.2991 61.6356C91.6864 61.6356 92.0131 61.5026 92.2791 61.2366C92.5451 60.966 92.6781 60.637 92.6781 60.2496C92.6781 59.8623 92.5451 59.5356 92.2791 59.2696C92.0131 58.999 91.6864 58.8636 91.2991 58.8636C90.9117 58.8636 90.5851 58.999 90.3191 59.2696C90.0531 59.5356 89.9201 59.8623 89.9201 60.2496C89.9201 60.637 90.0531 60.966 90.3191 61.2366Z" fill="#0F111A"/>
<path d="M100.146 58.4996V58.9476H98.9075V61.9996H98.4455V58.9476H97.2065V58.4996H100.146Z" fill="#0F111A"/>
<path d="M107.288 61.5516H107.778V62.9376H107.316V61.9996H104.46V62.9376H103.998V61.5516H104.425C104.663 61.239 104.782 60.798 104.782 60.2286V58.4996H107.288V61.5516ZM104.985 61.5516H106.826V58.9476H105.244V60.2286C105.244 60.7653 105.157 61.2063 104.985 61.5516Z" fill="#0F111A"/>
<path d="M113.807 58.4156C114.325 58.4156 114.742 58.6 115.06 58.9686C115.382 59.3326 115.543 59.7643 115.543 60.2636C115.543 60.315 115.538 60.3873 115.529 60.4806H112.456C112.502 60.8353 112.652 61.1176 112.904 61.3276C113.16 61.533 113.475 61.6356 113.849 61.6356C114.115 61.6356 114.343 61.582 114.535 61.4746C114.731 61.3626 114.878 61.218 114.976 61.0406L115.382 61.2786C115.228 61.526 115.018 61.722 114.752 61.8666C114.486 62.0113 114.182 62.0836 113.842 62.0836C113.291 62.0836 112.843 61.911 112.498 61.5656C112.152 61.2203 111.98 60.7816 111.98 60.2496C111.98 59.727 112.15 59.2906 112.491 58.9406C112.831 58.5906 113.27 58.4156 113.807 58.4156ZM113.807 58.8636C113.443 58.8636 113.137 58.9733 112.89 59.1926C112.647 59.4073 112.502 59.6873 112.456 60.0326H115.067C115.02 59.664 114.878 59.377 114.64 59.1716C114.402 58.9663 114.124 58.8636 113.807 58.8636Z" fill="#0F111A"/>
<path d="M122.861 58.4996V61.9996H122.399V58.9476H120.817V60.5086C120.817 61.092 120.705 61.4933 120.481 61.7126C120.262 61.932 119.958 62.0276 119.571 61.9996V61.5656C119.837 61.5936 120.033 61.5306 120.159 61.3766C120.29 61.2226 120.355 60.9333 120.355 60.5086V58.4996H122.861Z" fill="#0F111A"/>
<path d="M130.623 61.5586C130.268 61.9086 129.834 62.0836 129.321 62.0836C128.807 62.0836 128.371 61.9086 128.012 61.5586C127.657 61.204 127.48 60.7676 127.48 60.2496C127.48 59.7316 127.657 59.2976 128.012 58.9476C128.371 58.593 128.807 58.4156 129.321 58.4156C129.834 58.4156 130.268 58.593 130.623 58.9476C130.982 59.2976 131.162 59.7316 131.162 60.2496C131.162 60.7676 130.982 61.204 130.623 61.5586ZM128.341 61.2366C128.607 61.5026 128.933 61.6356 129.321 61.6356C129.708 61.6356 130.035 61.5026 130.301 61.2366C130.567 60.966 130.7 60.637 130.7 60.2496C130.7 59.8623 130.567 59.5356 130.301 59.2696C130.035 58.999 129.708 58.8636 129.321 58.8636C128.933 58.8636 128.607 58.999 128.341 59.2696C128.075 59.5356 127.942 59.8623 127.942 60.2496C127.942 60.637 128.075 60.966 128.341 61.2366Z" fill="#0F111A"/>
<path d="M137.984 58.4996H138.446V61.9996H137.984V60.6696C137.714 60.8096 137.38 60.8796 136.983 60.8796C136.526 60.8796 136.176 60.7746 135.933 60.5646C135.695 60.35 135.576 60.035 135.576 59.6196V58.4996H136.038V59.6196C136.038 59.9136 136.115 60.126 136.269 60.2566C136.423 60.3826 136.657 60.4456 136.969 60.4456C137.333 60.4456 137.672 60.378 137.984 60.2426V58.4996Z" fill="#0F111A"/>
<path d="M145.756 58.4996H146.218V61.9996H145.756V60.4736H143.74V61.9996H143.278V58.4996H143.74V60.0256H145.756V58.4996Z" fill="#0F111A"/>
<path d="M152.466 59.8296C152.793 59.8296 153.068 59.9323 153.292 60.1376C153.521 60.3383 153.635 60.5973 153.635 60.9146C153.635 61.232 153.521 61.4933 153.292 61.6986C153.068 61.8993 152.793 61.9996 152.466 61.9996H151.045V58.4996H151.507V59.8296H152.466ZM154.125 58.4996H154.587V61.9996H154.125V58.4996ZM152.466 61.5516C152.662 61.5516 152.828 61.4933 152.963 61.3766C153.103 61.26 153.173 61.106 153.173 60.9146C153.173 60.7233 153.103 60.5693 152.963 60.4526C152.828 60.336 152.662 60.2776 152.466 60.2776H151.507V61.5516H152.466Z" fill="#0F111A"/>
<path d="M161.038 58.4156C161.556 58.4156 161.973 58.6 162.291 58.9686C162.613 59.3326 162.774 59.7643 162.774 60.2636C162.774 60.315 162.769 60.3873 162.76 60.4806H159.687C159.733 60.8353 159.883 61.1176 160.135 61.3276C160.391 61.533 160.706 61.6356 161.08 61.6356C161.346 61.6356 161.574 61.582 161.766 61.4746C161.962 61.3626 162.109 61.218 162.207 61.0406L162.613 61.2786C162.459 61.526 162.249 61.722 161.983 61.8666C161.717 62.0113 161.413 62.0836 161.073 62.0836C160.522 62.0836 160.074 61.911 159.729 61.5656C159.383 61.2203 159.211 60.7816 159.211 60.2496C159.211 59.727 159.381 59.2906 159.722 58.9406C160.062 58.5906 160.501 58.4156 161.038 58.4156ZM161.038 58.8636C160.674 58.8636 160.368 58.9733 160.121 59.1926C159.878 59.4073 159.733 59.6873 159.687 60.0326H162.298C162.251 59.664 162.109 59.377 161.871 59.1716C161.633 58.9663 161.355 58.8636 161.038 58.8636Z" fill="#0F111A"/>
<path d="M174.835 58.4156C175.334 58.4156 175.759 58.593 176.109 58.9476C176.463 59.3023 176.641 59.7363 176.641 60.2496C176.641 60.763 176.463 61.197 176.109 61.5516C175.759 61.9063 175.334 62.0836 174.835 62.0836C174.214 62.0836 173.743 61.827 173.421 61.3136V63.3996H172.959V58.4996H173.421V59.1856C173.743 58.6723 174.214 58.4156 174.835 58.4156ZM173.82 61.2366C174.086 61.5026 174.412 61.6356 174.8 61.6356C175.187 61.6356 175.514 61.5026 175.78 61.2366C176.046 60.966 176.179 60.637 176.179 60.2496C176.179 59.8623 176.046 59.5356 175.78 59.2696C175.514 58.999 175.187 58.8636 174.8 58.8636C174.412 58.8636 174.086 58.999 173.82 59.2696C173.554 59.5356 173.421 59.8623 173.421 60.2496C173.421 60.637 173.554 60.966 173.82 61.2366Z" fill="#0F111A"/>
<path d="M184.269 58.4996H184.731V61.9996H184.269V61.3136C183.947 61.827 183.475 62.0836 182.855 62.0836C182.355 62.0836 181.928 61.9063 181.574 61.5516C181.224 61.197 181.049 60.763 181.049 60.2496C181.049 59.7363 181.224 59.3023 181.574 58.9476C181.928 58.593 182.355 58.4156 182.855 58.4156C183.475 58.4156 183.947 58.6723 184.269 59.1856V58.4996ZM181.91 61.2366C182.176 61.5026 182.502 61.6356 182.89 61.6356C183.277 61.6356 183.604 61.5026 183.87 61.2366C184.136 60.966 184.269 60.637 184.269 60.2496C184.269 59.8623 184.136 59.5356 183.87 59.2696C183.604 58.999 183.277 58.8636 182.89 58.8636C182.502 58.8636 182.176 58.999 181.91 59.2696C181.644 59.5356 181.511 59.8623 181.511 60.2496C181.511 60.637 181.644 60.966 181.91 61.2366Z" fill="#0F111A"/>
<path d="M191.113 62.0836C190.609 62.0836 190.189 61.918 189.853 61.5866C189.517 61.2506 189.349 60.8166 189.349 60.2846C189.349 59.6873 189.438 59.23 189.615 58.9126C189.792 58.5906 190.152 58.299 190.693 58.0376C190.796 57.9863 190.931 57.9256 191.099 57.8556C191.272 57.7856 191.4 57.7296 191.484 57.6876C191.573 57.6456 191.668 57.592 191.771 57.5266C191.874 57.4566 191.951 57.3796 192.002 57.2956C192.053 57.2116 192.086 57.1113 192.1 56.9946L192.464 57.2046C192.445 57.3166 192.408 57.4216 192.352 57.5196C192.296 57.6176 192.238 57.697 192.177 57.7576C192.121 57.8183 192.03 57.886 191.904 57.9606C191.783 58.0306 191.687 58.082 191.617 58.1146C191.552 58.1426 191.435 58.1916 191.267 58.2616C191.104 58.3316 190.994 58.3783 190.938 58.4016C190.611 58.5416 190.371 58.6886 190.217 58.8426C190.063 58.992 189.953 59.188 189.888 59.4306C190.047 59.2206 190.247 59.0666 190.49 58.9686C190.737 58.866 190.978 58.8146 191.211 58.8146C191.678 58.8146 192.063 58.9686 192.366 59.2766C192.674 59.58 192.828 59.9696 192.828 60.4456C192.828 60.917 192.665 61.309 192.338 61.6216C192.016 61.9296 191.608 62.0836 191.113 62.0836ZM191.113 61.6216C191.477 61.6216 191.776 61.512 192.009 61.2926C192.247 61.0686 192.366 60.7863 192.366 60.4456C192.366 60.1003 192.254 59.818 192.03 59.5986C191.811 59.3746 191.517 59.2626 191.148 59.2626C190.817 59.2626 190.516 59.3676 190.245 59.5776C189.974 59.783 189.839 60.0583 189.839 60.4036C189.839 60.7583 189.96 61.05 190.203 61.2786C190.45 61.5073 190.754 61.6216 191.113 61.6216Z" fill="#0F111A"/>
<path d="M200.314 61.5586C199.959 61.9086 199.525 62.0836 199.012 62.0836C198.498 62.0836 198.062 61.9086 197.703 61.5586C197.348 61.204 197.171 60.7676 197.171 60.2496C197.171 59.7316 197.348 59.2976 197.703 58.9476C198.062 58.593 198.498 58.4156 199.012 58.4156C199.525 58.4156 199.959 58.593 200.314 58.9476C200.673 59.2976 200.853 59.7316 200.853 60.2496C200.853 60.7676 200.673 61.204 200.314 61.5586ZM198.032 61.2366C198.298 61.5026 198.624 61.6356 199.012 61.6356C199.399 61.6356 199.726 61.5026 199.992 61.2366C200.258 60.966 200.391 60.637 200.391 60.2496C200.391 59.8623 200.258 59.5356 199.992 59.2696C199.726 58.999 199.399 58.8636 199.012 58.8636C198.624 58.8636 198.298 58.999 198.032 59.2696C197.766 59.5356 197.633 59.8623 197.633 60.2496C197.633 60.637 197.766 60.966 198.032 61.2366Z" fill="#0F111A"/>
<path d="M207.859 58.4996V58.9476H206.62V61.9996H206.158V58.9476H204.919V58.4996H207.859Z" fill="#0F111A"/>
<path d="M213.693 59.8296C214.02 59.8296 214.295 59.9323 214.519 60.1376C214.748 60.3383 214.862 60.5973 214.862 60.9146C214.862 61.232 214.748 61.4933 214.519 61.6986C214.295 61.8993 214.02 61.9996 213.693 61.9996H212.272V58.4996H212.734V59.8296H213.693ZM215.352 58.4996H215.814V61.9996H215.352V58.4996ZM213.693 61.5516C213.889 61.5516 214.055 61.4933 214.19 61.3766C214.33 61.26 214.4 61.106 214.4 60.9146C214.4 60.7233 214.33 60.5693 214.19 60.4526C214.055 60.336 213.889 60.2776 213.693 60.2776H212.734V61.5516H213.693Z" fill="#0F111A"/>
</svg>
