<svg width="80" height="80" viewBox="0 0 80 80" fill="none" xmlns="http://www.w3.org/2000/svg">
<path d="M41.6289 61.2377V54.6541" stroke="black" stroke-width="2" stroke-linecap="round" stroke-linejoin="round"/>
<path d="M77.5663 67.289C69.3979 68.9913 64.3009 60.8226 64.3009 60.8226C61.7333 64.9046 57.2906 67.427 52.4696 67.5403C47.8976 67.4556 43.7376 64.8786 41.6253 60.8226C38.5439 64.831 33.8603 67.2863 28.8109 67.5403C24.0249 67.3133 19.6339 64.8183 16.9896 60.8226C14.3453 56.827 10.4549 69.1283 2.43359 67.423V72.6733C2.43359 74.478 3.89626 75.9406 5.70093 75.9406H74.3153C76.1196 75.9406 77.5826 74.478 77.5826 72.6733L77.5663 67.289Z" fill="#DDFEFF"/>
<path d="M77.5663 67.2891C69.3979 68.9914 64.3009 60.8228 64.3009 60.8228C61.7333 64.9048 57.2906 67.4271 52.4696 67.5404C47.8976 67.4558 43.7376 64.8788 41.6253 60.8228C38.5439 64.8311 33.8603 67.2864 28.8109 67.5404C24.0249 67.3134 19.6339 64.8184 16.9896 60.8228C16.9896 60.8228 10.4549 69.1284 2.43359 67.4231" fill="#DDFEFF"/>
<path d="M77.5663 67.2891C69.3979 68.9914 64.3009 60.8228 64.3009 60.8228C61.7333 64.9048 57.2906 67.4271 52.4696 67.5404C47.8976 67.4558 43.7376 64.8788 41.6253 60.8228C38.5439 64.8311 33.8603 67.2864 28.8109 67.5404C24.0249 67.3134 19.6339 64.8184 16.9896 60.8228C16.9896 60.8228 10.4549 69.1284 2.43359 67.4231" stroke="black" stroke-width="2" stroke-linecap="round" stroke-linejoin="round"/>
<path d="M69.3977 28.5317C69.3977 43.8701 56.9633 56.3041 41.625 56.3041C41.654 40.9777 54.0713 28.5604 69.3977 28.5317Z" fill="#DDFEFF"/>
<path d="M48.9443 37.5494C44.2276 42.6548 41.6133 49.3534 41.6253 56.3041C41.6373 49.4324 39.086 42.8034 34.47 37.7131C30.46 26.5484 33.261 14.0721 41.658 5.69312C49.9793 14.0448 52.8076 26.4111 48.9443 37.5494Z" fill="white"/>
<path d="M41.6249 56.3041C26.2912 56.2934 13.8635 43.8654 13.8525 28.5317C29.1849 28.5461 41.6102 40.9717 41.6249 56.3041Z" fill="#DDFEFF"/>
<path d="M41.6577 17.1288C46.0444 21.5281 48.9814 27.1634 50.0747 33.2791C52.0224 23.2568 48.8691 12.9211 41.6577 5.69312C34.4717 12.8684 31.3187 23.1448 33.2444 33.1158C34.3687 27.0588 37.3021 21.4848 41.6577 17.1288Z" fill="#DDFEFF"/>
<path d="M43.0463 47.6031C42.11 50.4087 41.63 53.3464 41.625 56.3041C56.9633 56.3041 69.3977 43.8701 69.3977 28.5317C68.9207 28.5317 68.4567 28.5841 67.986 28.6067C64.388 39.4777 54.4827 47.0224 43.0463 47.6031Z" fill="white"/>
<path d="M15.2672 28.6067C14.7969 28.5841 14.3295 28.5317 13.8525 28.5317C13.8635 43.8654 26.2912 56.2934 41.6252 56.3041C41.6192 53.3454 41.1392 50.4067 40.2039 47.6001C28.7719 47.0131 18.8709 39.4721 15.2672 28.6067Z" fill="white"/>
<path d="M69.3977 28.5317C69.3977 43.8701 56.9633 56.3041 41.625 56.3041C41.654 40.9777 54.0713 28.5604 69.3977 28.5317Z" stroke="black" stroke-width="2" stroke-linecap="round" stroke-linejoin="round"/>
<path d="M48.9443 37.5494C44.2276 42.6548 41.6133 49.3534 41.6253 56.3041C41.6373 49.4324 39.086 42.8034 34.47 37.7131C30.46 26.5484 33.261 14.0721 41.658 5.69312C49.9793 14.0448 52.8076 26.4111 48.9443 37.5494Z" stroke="black" stroke-width="2" stroke-linecap="round" stroke-linejoin="round"/>
<path d="M41.6249 56.3041C26.2912 56.2934 13.8635 43.8654 13.8525 28.5317C29.1849 28.5461 41.6102 40.9717 41.6249 56.3041Z" stroke="black" stroke-width="2" stroke-linecap="round" stroke-linejoin="round"/>
</svg>
