<svg width="44" height="32" viewBox="0 0 44 32" fill="none" xmlns="http://www.w3.org/2000/svg">
<g filter="url(#filter0_d_16_1968)">
<path fill-rule="evenodd" clip-rule="evenodd" d="M15.2657 1.07975C14.0786 1.24806 12.026 1.85571 11.3917 2.22657C10.7526 2.60026 10.7637 3.41506 11.414 3.85811C11.6794 4.03898 12.0545 4.04219 12.5301 3.86753C13.45 3.52978 14.2257 3.29833 14.9681 3.14007C15.7156 2.98068 15.8842 2.9678 17.2195 2.9678C18.556 2.9678 18.7233 2.98061 19.4787 3.14107C22.4026 3.76198 25.0436 5.26755 28.0309 8.01651C28.803 8.72694 30.5062 10.5066 30.7253 10.8318C30.8503 11.0173 30.8369 11.0362 29.8103 12.1236C25.8654 16.3019 22.179 18.4725 18.3069 18.8969C17.5065 18.9847 15.9132 18.9351 15.1486 18.7986C12.228 18.2773 9.46804 16.8171 6.5824 14.2667C5.6068 13.4045 3.38186 11.118 3.38186 10.9778C3.38186 10.8772 4.57221 9.54381 5.42826 8.68542C6.28676 7.82451 7.57426 6.68114 8.43414 6.016C9.0578 5.53362 9.1547 5.40602 9.15507 5.06682C9.15533 4.85246 9.1055 4.70695 8.95081 4.46997C8.68309 4.05997 8.40288 3.94983 7.90027 4.05708C7.60074 4.12097 7.45584 4.21383 6.80387 4.75972C4.64896 6.56422 1.35842 9.87541 1.08387 10.5157C0.980823 10.7559 0.97141 11.1486 1.06297 11.3897C1.20737 11.7699 3.22968 13.9756 4.52677 15.1677C8.02924 18.3866 11.3796 20.2314 14.8348 20.8437C16.011 21.0521 17.9887 21.0521 19.1649 20.8437C22.631 20.2295 26.0195 18.3606 29.4969 15.1452C30.8046 13.936 32.7949 11.763 32.9367 11.3897C33.0212 11.1674 33.0211 10.7787 32.9365 10.5561C32.8638 10.3646 32.5626 9.99189 31.7505 9.08845C27.6811 4.56138 23.6367 1.95755 19.4473 1.16751C18.5047 0.989779 16.2361 0.942157 15.2657 1.07975ZM15.9323 5.03427C13.5627 5.43423 11.6342 7.26121 11.124 9.58948C10.8815 10.6958 10.9707 12.0663 11.354 13.127C11.9262 14.71 13.3169 16.093 14.8775 16.631C17.2454 17.4471 19.7787 16.8642 21.401 15.1299C22.22 14.2544 22.7141 13.2468 22.9276 12.0173C23.3667 9.48708 22.1838 6.93181 20.0045 5.70331C18.8746 5.06632 17.2875 4.80559 15.9323 5.03427ZM18.1922 7.1338C18.7788 7.3197 19.3522 7.67674 19.8224 8.14869C20.2957 8.62385 20.5805 9.07714 20.8143 9.72701C20.9601 10.1323 20.9801 10.2825 20.9801 10.9732C20.9801 11.6639 20.9601 11.814 20.8143 12.2193C20.5805 12.8692 20.2957 13.3225 19.8224 13.7976C19.3442 14.2777 18.7769 14.6279 18.1608 14.8233C17.8051 14.9361 17.5782 14.9621 16.9685 14.9596C16.3184 14.957 16.1525 14.934 15.7551 14.7913C15.1058 14.5581 14.6531 14.2728 14.1785 13.7976C12.7363 12.3538 12.5893 10.1995 13.8198 8.54104C14.3388 7.84154 15.2659 7.24199 16.1354 7.04371C16.6715 6.92145 17.6586 6.96473 18.1922 7.1338Z" fill="white"/>
</g>
<defs>
<filter id="filter0_d_16_1968" x="0" y="0" width="44" height="32" filterUnits="userSpaceOnUse" color-interpolation-filters="sRGB">
<feFlood flood-opacity="0" result="BackgroundImageFix"/>
<feColorMatrix in="SourceAlpha" type="matrix" values="0 0 0 0 0 0 0 0 0 0 0 0 0 0 0 0 0 0 127 0" result="hardAlpha"/>
<feOffset dx="5" dy="5"/>
<feGaussianBlur stdDeviation="3"/>
<feComposite in2="hardAlpha" operator="out"/>
<feColorMatrix type="matrix" values="0 0 0 0 0 0 0 0 0 0 0 0 0 0 0 0 0 0 0.18 0"/>
<feBlend mode="normal" in2="BackgroundImageFix" result="effect1_dropShadow_16_1968"/>
<feBlend mode="normal" in="SourceGraphic" in2="effect1_dropShadow_16_1968" result="shape"/>
</filter>
</defs>
</svg>
