<svg width="236" height="236" viewBox="0 0 236 236" fill="none" xmlns="http://www.w3.org/2000/svg">
<path d="M112.375 39.25H117.262C151.543 39.25 168.684 39.25 175.191 45.407C180.815 50.7291 183.308 58.5694 181.789 66.1624C180.033 74.9464 166.039 84.8446 138.051 104.641L92.3243 136.984C64.3364 156.78 50.3424 166.679 48.5856 175.463C47.0671 183.056 49.5597 190.896 55.1841 196.218C61.6908 202.375 78.8315 202.375 113.113 202.375H123.625M73 39.25C73 57.8896 57.8896 73 39.25 73C20.6104 73 5.5 57.8896 5.5 39.25C5.5 20.6104 20.6104 5.5 39.25 5.5C57.8896 5.5 73 20.6104 73 39.25ZM230.5 196.75C230.5 215.39 215.39 230.5 196.75 230.5C178.11 230.5 163 215.39 163 196.75C163 178.11 178.11 163 196.75 163C215.39 163 230.5 178.11 230.5 196.75Z" stroke="#F9F9F9" stroke-width="10" stroke-linecap="round" stroke-linejoin="round"/>
</svg>
