<svg width="56" height="35" viewBox="0 0 56 35" fill="none" xmlns="http://www.w3.org/2000/svg">
<path d="M35.2081 30.4158H20.2168V3.64258H35.2081V30.4158Z" fill="#FF5F00"/>
<path d="M21.1771 17.027C21.1771 11.596 23.736 6.75813 27.7208 3.64043C24.8068 1.36062 21.1291 -0.000123163 17.1323 -0.000123163C7.67015 -0.000123163 0 7.62307 0 17.027C0 26.431 7.67015 34.0542 17.1323 34.0542C21.1291 34.0542 24.8068 32.6935 27.7208 30.4136C23.736 27.2959 21.1771 22.4581 21.1771 17.027" fill="#EB001B"/>
<path d="M55.427 17.027C55.427 26.431 47.7568 34.0542 38.2947 34.0542C34.2979 34.0542 30.6202 32.6935 27.7051 30.4136C31.691 27.2959 34.2499 22.4581 34.2499 17.027C34.2499 11.596 31.691 6.75813 27.7051 3.64043C30.6202 1.36062 34.2979 -0.000123163 38.2947 -0.000123163C47.7568 -0.000123163 55.427 7.62307 55.427 17.027" fill="#F79E1B"/>
</svg>
