<svg width="80" height="80" viewBox="0 0 80 80" fill="none" xmlns="http://www.w3.org/2000/svg">
<path d="M66.666 28.3332C66.6668 26.4757 66.1095 24.6608 65.0664 23.1237C64.0233 21.5867 62.5425 20.3985 60.816 19.7132C61.5505 18.0073 61.7562 16.1202 61.4064 14.2961C61.0567 12.472 60.1677 10.7949 58.8544 9.48153C57.5411 8.1682 55.8639 7.27918 54.0398 6.92946C52.2157 6.57975 50.3286 6.78543 48.6227 7.51991C47.9369 5.79316 46.7485 4.3121 45.2113 3.26859C43.6741 2.22508 41.8589 1.66719 40.001 1.66719C38.1431 1.66719 36.3279 2.22508 34.7907 3.26859C33.2535 4.3121 32.0651 5.79316 31.3793 7.51991C29.673 6.78233 27.7844 6.57422 25.9584 6.92255C24.1324 7.27088 22.453 8.1596 21.138 9.47354C19.823 10.7875 18.9329 12.4661 18.5831 14.2918C18.2333 16.1175 18.4398 18.0063 19.176 19.7132C17.449 20.3983 15.9675 21.5863 14.9237 23.1232C13.8799 24.6602 13.3218 26.4753 13.3218 28.3332C13.3218 30.1912 13.8799 32.0063 14.9237 33.5432C15.9675 35.0802 17.449 36.2682 19.176 36.9532C18.4415 38.6592 18.2358 40.5462 18.5856 42.3703C18.9353 44.1944 19.8243 45.8716 21.1376 47.185C22.4509 48.4983 24.1281 49.3873 25.9522 49.737C27.7763 50.0867 29.6634 49.8811 31.3693 49.1466C32.0551 50.8733 33.2435 52.3544 34.7807 53.3979C36.3179 54.4414 38.1331 54.9993 39.991 54.9993C41.8489 54.9993 43.6641 54.4414 45.2013 53.3979C46.7385 52.3544 47.9269 50.8733 48.6127 49.1466C50.3186 49.8811 52.2057 50.0867 54.0298 49.737C55.8539 49.3873 57.5311 48.4983 58.8444 47.185C60.1577 45.8716 61.0467 44.1944 61.3964 42.3703C61.7462 40.5462 61.5405 38.6592 60.806 36.9532C62.5344 36.2695 64.0173 35.082 65.0623 33.5449C66.1072 32.0077 66.666 30.1919 66.666 28.3332Z" fill="#DDFEFF"/>
<path d="M58.846 9.47991C57.5329 8.16574 55.8553 7.27628 54.0306 6.92681C52.206 6.57733 50.3185 6.78396 48.6127 7.51991C47.9269 5.79316 46.7385 4.3121 45.2013 3.26859C43.6641 2.22508 41.8489 1.66719 39.991 1.66719C38.1331 1.66719 36.3179 2.22508 34.7807 3.26859C33.2435 4.3121 32.0551 5.79316 31.3693 7.51991C29.6634 6.78543 27.7763 6.57975 25.9522 6.92946C24.1281 7.27918 22.4509 8.1682 21.1376 9.48153C19.8243 10.7949 18.9353 12.472 18.5856 14.2961C18.2358 16.1202 18.4415 18.0073 19.176 19.7132C17.449 20.3983 15.9675 21.5863 14.9237 23.1232C13.8799 24.6602 13.3218 26.4753 13.3218 28.3332C13.3218 30.1912 13.8799 32.0063 14.9237 33.5432C15.9675 35.0802 17.449 36.2682 19.176 36.9532C18.4396 38.659 18.2327 40.5466 18.5822 42.3713C18.9317 44.1961 19.8214 45.8737 21.136 47.1866L58.846 9.47991Z" fill="#DDFEFF"/>
<path d="M51 38.56C50.5567 39.5281 49.8337 40.3413 48.9242 40.895C48.0147 41.4487 46.9602 41.7174 45.8967 41.6667H40.5467C35 41.6667 36.66 38.3333 28.3267 38.3333V28.3333H29.45C34.3033 28.3333 37.1967 22.7367 40 16.6667C40.9167 14.6667 45 13.3333 45 17.6V25H53.7333C54.2989 25.0317 54.8306 25.28 55.218 25.6934C55.6053 26.1068 55.8185 26.6535 55.8133 27.22L51 38.56Z" fill="white" stroke="black" stroke-width="2" stroke-linecap="round" stroke-linejoin="round"/>
<path d="M66.5369 48.7699L76.1302 65.3833C77.0469 66.9699 76.3169 68.0199 74.5069 67.7166L64.9569 66.1033L61.6669 75.1966C61.0402 76.9199 59.7636 77.0399 58.8269 75.4599L49.6436 59.9999" fill="#DDFEFF"/>
<path d="M66.5369 48.7699L76.1302 65.3833C77.0469 66.9699 76.3169 68.0199 74.5069 67.7166L64.9569 66.1033L61.6669 75.1966C61.0402 76.9199 59.7636 77.0399 58.8269 75.4599L49.6436 59.9999" stroke="black" stroke-width="2" stroke-linecap="round" stroke-linejoin="round"/>
<path d="M13.4629 48.7699L3.86954 65.3833C2.95288 66.9699 3.68288 68.0199 5.49288 67.7166L15.0429 66.1033L19.4962 78.3333L30.3329 59.9999" fill="#DDFEFF"/>
<path d="M13.4629 48.7699L3.86954 65.3833C2.95288 66.9699 3.68288 68.0199 5.49288 67.7166L15.0429 66.1033L19.4962 78.3333L30.3329 59.9999" stroke="black" stroke-width="2" stroke-linecap="round" stroke-linejoin="round"/>
<path d="M66.666 28.3332C66.6668 26.4757 66.1095 24.6608 65.0664 23.1237C64.0233 21.5867 62.5425 20.3985 60.816 19.7132C61.5505 18.0073 61.7562 16.1202 61.4064 14.2961C61.0567 12.472 60.1677 10.7949 58.8544 9.48153C57.5411 8.1682 55.8639 7.27918 54.0398 6.92946C52.2157 6.57975 50.3286 6.78543 48.6227 7.51991C47.9369 5.79316 46.7485 4.3121 45.2113 3.26859C43.6741 2.22508 41.8589 1.66719 40.001 1.66719C38.1431 1.66719 36.3279 2.22508 34.7907 3.26859C33.2535 4.3121 32.0651 5.79316 31.3793 7.51991C29.673 6.78233 27.7844 6.57422 25.9584 6.92255C24.1324 7.27088 22.453 8.1596 21.138 9.47354C19.823 10.7875 18.9329 12.4661 18.5831 14.2918C18.2333 16.1176 18.4398 18.0063 19.176 19.7132C17.449 20.3983 15.9675 21.5863 14.9237 23.1232C13.8799 24.6602 13.3218 26.4753 13.3218 28.3332C13.3218 30.1912 13.8799 32.0063 14.9237 33.5432C15.9675 35.0802 17.449 36.2682 19.176 36.9532C18.4415 38.6592 18.2358 40.5462 18.5856 42.3703C18.9353 44.1944 19.8243 45.8716 21.1376 47.185C22.4509 48.4983 24.1281 49.3873 25.9522 49.737C27.7763 50.0867 29.6634 49.8811 31.3693 49.1466C32.0551 50.8733 33.2435 52.3544 34.7807 53.3979C36.3179 54.4414 38.1331 54.9993 39.991 54.9993C41.8489 54.9993 43.6641 54.4414 45.2013 53.3979C46.7385 52.3544 47.9269 50.8733 48.6127 49.1466C50.3186 49.8811 52.2057 50.0867 54.0298 49.737C55.8539 49.3873 57.5311 48.4983 58.8444 47.185C60.1577 45.8716 61.0467 44.1944 61.3964 42.3703C61.7462 40.5462 61.5405 38.6592 60.806 36.9532C62.5344 36.2695 64.0173 35.082 65.0623 33.5449C66.1072 32.0077 66.666 30.1919 66.666 28.3332Z" stroke="black" stroke-width="2" stroke-linecap="round" stroke-linejoin="round"/>
</svg>
