<svg width="80" height="80" viewBox="0 0 80 80" fill="none" xmlns="http://www.w3.org/2000/svg">
<path d="M51.6665 25H64.9998C68.5361 25 71.9274 26.4048 74.4279 28.9052C76.9284 31.4057 78.3332 34.7971 78.3332 38.3333V58.3333C78.3332 59.2174 77.982 60.0652 77.3569 60.6904C76.7317 61.3155 75.8839 61.6667 74.9998 61.6667H51.6665V25Z" fill="white"/>
<path d="M78.3331 38.3333V41.6667H64.9998C64.538 41.6855 64.0778 41.6027 63.6516 41.4241C63.2254 41.2456 62.8436 40.9756 62.5331 40.6333C62.2217 40.3005 61.9837 39.906 61.8344 39.4753C61.6851 39.0447 61.6279 38.5875 61.6664 38.1333V25H64.9998C68.536 25 71.9274 26.4048 74.4279 28.9052C76.9283 31.4057 78.3331 34.7971 78.3331 38.3333Z" fill="#DDFEFF"/>
<path d="M65.0001 25H61.6668V38.1333C61.6393 38.6824 61.7481 39.2298 61.9834 39.7267L73.5401 28.17C71.1589 26.135 68.1324 25.0116 65.0001 25Z" fill="white"/>
<path d="M4.99984 11.6667H48.3332C49.2172 11.6667 50.0651 12.0179 50.6902 12.643C51.3153 13.2681 51.6665 14.1159 51.6665 15V58.3333H1.6665V15C1.6665 14.1159 2.01769 13.2681 2.64281 12.643C3.26794 12.0179 4.11578 11.6667 4.99984 11.6667Z" fill="#DDFEFF"/>
<path d="M1.67676 50H51.6768V58.3333H1.67676V50Z" fill="white"/>
<path d="M48.3332 11.6667H4.99984C4.11578 11.6667 3.26794 12.0179 2.64281 12.643C2.01769 13.2681 1.6665 14.1159 1.6665 15V23.3333C1.6665 22.4493 2.01769 21.6014 2.64281 20.9763C3.26794 20.3512 4.11578 20 4.99984 20H48.3332C49.2172 20 50.0651 20.3512 50.6902 20.9763C51.3153 21.6014 51.6665 22.4493 51.6665 23.3333V15C51.6665 14.1159 51.3153 13.2681 50.6902 12.643C50.0651 12.0179 49.2172 11.6667 48.3332 11.6667Z" fill="white"/>
<path d="M15.0034 21.6667H35.0034V35H15.0034V21.6667Z" fill="#DDFEFF"/>
<path d="M1.65674 35.0767H21.6567V50H1.65674V35.0767Z" fill="#DDFEFF"/>
<path d="M21.5566 35.0767H41.5566V50H21.5566V35.0767Z" fill="#DDFEFF"/>
<path d="M53.3333 68.3333C54.9815 68.3333 56.5927 67.8446 57.9631 66.9289C59.3335 66.0132 60.4016 64.7118 61.0323 63.189C61.6631 61.6663 61.8281 59.9908 61.5065 58.3742C61.185 56.7577 60.3913 55.2729 59.2259 54.1074C58.0605 52.942 56.5756 52.1483 54.9591 51.8268C53.3426 51.5052 51.667 51.6703 50.1443 52.301C48.6216 52.9317 47.3201 53.9998 46.4044 55.3703C45.4887 56.7407 45 58.3518 45 60C45 61.0944 45.2155 62.178 45.6343 63.189C46.0531 64.2001 46.667 65.1187 47.4408 65.8926C48.2146 66.6664 49.1333 67.2802 50.1443 67.699C51.1554 68.1178 52.239 68.3333 53.3333 68.3333Z" fill="#DDFEFF"/>
<path d="M16.6668 68.3333C18.315 68.3333 19.9262 67.8446 21.2966 66.9289C22.667 66.0132 23.7351 64.7118 24.3658 63.189C24.9966 61.6663 25.1616 59.9908 24.84 58.3742C24.5185 56.7577 23.7248 55.2729 22.5594 54.1074C21.3939 52.942 19.9091 52.1483 18.2926 51.8268C16.6761 51.5052 15.0005 51.6703 13.4778 52.301C11.9551 52.9317 10.6536 53.9998 9.73792 55.3703C8.82224 56.7407 8.3335 58.3518 8.3335 60C8.3335 61.0944 8.54904 62.178 8.96783 63.189C9.38662 64.2001 10.0005 65.1187 10.7743 65.8926C11.5481 66.6664 12.4668 67.2802 13.4778 67.699C14.4888 68.1178 15.5725 68.3333 16.6668 68.3333Z" fill="#DDFEFF"/>
<path d="M38.3332 58.3333H31.6665" stroke="black" stroke-width="2" stroke-linecap="round" stroke-linejoin="round"/>
<path d="M68.3332 61.6667H74.9998C75.8839 61.6667 76.7317 61.3155 77.3569 60.6904C77.982 60.0652 78.3332 59.2174 78.3332 58.3333V38.3333C78.3217 34.8006 76.9133 31.4159 74.4153 28.9179C71.9173 26.4199 68.5325 25.0114 64.9998 25H51.6665" stroke="black" stroke-width="2" stroke-linecap="round" stroke-linejoin="round"/>
<path d="M78.3335 55H73.3335" stroke="black" stroke-width="2" stroke-linecap="round" stroke-linejoin="round"/>
<path d="M31.6665 45V35H41.6665V50" stroke="black" stroke-width="2" stroke-linecap="round" stroke-linejoin="round"/>
<path d="M1.6665 35H21.6665" stroke="black" stroke-width="2" stroke-linecap="round" stroke-linejoin="round"/>
<path d="M11.6665 35V45" stroke="black" stroke-width="2" stroke-linecap="round" stroke-linejoin="round"/>
<path d="M15 21.6667H35V35H15V21.6667Z" stroke="black" stroke-width="2" stroke-linecap="round" stroke-linejoin="round"/>
<path d="M25 21.6667V28.3333" stroke="black" stroke-width="2" stroke-linecap="round" stroke-linejoin="round"/>
<path d="M21.6665 35V46.6667" stroke="black" stroke-width="2" stroke-linecap="round" stroke-linejoin="round"/>
<path d="M51.6665 45V15C51.6665 14.1159 51.3153 13.2681 50.6902 12.643C50.0651 12.0179 49.2172 11.6667 48.3332 11.6667H4.99984C4.11578 11.6667 3.26794 12.0179 2.64281 12.643C2.01769 13.2681 1.6665 14.1159 1.6665 15V58.3333" stroke="black" stroke-width="2" stroke-linecap="round" stroke-linejoin="round"/>
<path d="M78.3334 41.6667H65.0001C64.5433 41.6744 64.0899 41.5868 63.6689 41.4096C63.2479 41.2323 62.8684 40.9691 62.5547 40.637C62.2411 40.3048 62.0001 39.9109 61.8472 39.4804C61.6943 39.0499 61.6329 38.5923 61.6668 38.1367V25" stroke="black" stroke-width="2" stroke-linecap="round" stroke-linejoin="round"/>
<path d="M53.3333 68.3333C54.9815 68.3333 56.5927 67.8446 57.9631 66.9289C59.3335 66.0132 60.4016 64.7118 61.0323 63.189C61.6631 61.6663 61.8281 59.9908 61.5065 58.3742C61.185 56.7577 60.3913 55.2729 59.2259 54.1074C58.0605 52.942 56.5756 52.1483 54.9591 51.8268C53.3426 51.5052 51.667 51.6703 50.1443 52.301C48.6216 52.9317 47.3201 53.9998 46.4044 55.3703C45.4887 56.7407 45 58.3518 45 60C45 61.0944 45.2155 62.178 45.6343 63.189C46.0531 64.2001 46.667 65.1187 47.4408 65.8926C48.2146 66.6664 49.1333 67.2802 50.1443 67.699C51.1554 68.1178 52.239 68.3333 53.3333 68.3333Z" stroke="black" stroke-width="2" stroke-linecap="round" stroke-linejoin="round"/>
<path d="M16.6668 68.3333C18.315 68.3333 19.9262 67.8446 21.2966 66.9289C22.667 66.0132 23.7351 64.7118 24.3658 63.189C24.9966 61.6663 25.1616 59.9908 24.84 58.3742C24.5185 56.7577 23.7248 55.2729 22.5594 54.1074C21.3939 52.942 19.9091 52.1483 18.2926 51.8268C16.6761 51.5052 15.0005 51.6703 13.4778 52.301C11.9551 52.9317 10.6536 53.9998 9.73792 55.3703C8.82224 56.7407 8.3335 58.3518 8.3335 60C8.3335 61.0944 8.54904 62.178 8.96783 63.189C9.38662 64.2001 10.0005 65.1187 10.7743 65.8926C11.5481 66.6664 12.4668 67.2802 13.4778 67.699C14.4888 68.1178 15.5725 68.3333 16.6668 68.3333Z" stroke="black" stroke-width="2" stroke-linecap="round" stroke-linejoin="round"/>
</svg>
